<svg xmlns="http://www.w3.org/2000/svg" width="31.008" height="25.844" viewBox="0 0 31.008 25.844">
  <path id="camera" d="M-8436.933,20533.977a3.5,3.5,0,0,1-3.015-3.619l.011-.73c-.269-4.387.433-8.73.041-13.111-.382-2.3.278-4.658,2.922-5.035,1.4-.066,3.839-.01,5.226-.066a2.848,2.848,0,0,0,1.551-.277c.283-.2.855-.588,1.145-.783a4.821,4.821,0,0,1,2.623-.924c.922.037,2.092.006,3.024,0a4.514,4.514,0,0,1,1.933.469c.964.488,1.263,1.082,2.17,1.3,1.51.113,4.221.109,5.808.154a3.5,3.5,0,0,1,3.448,3.965c-.119,2.426-.093,4.854-.248,7.281a39.416,39.416,0,0,0-.082,5.828c.011.535.113,1.686.1,2.242a3.209,3.209,0,0,1-3.227,2.973c-4.081.279-7.591.361-11.657.387-2.293.17-5.014.18-7.287.242C-8433.975,20534.15-8435.371,20534.053-8436.933,20533.977Zm11.775-2.258c4.066.025,7.57.113,11.657.387,1.2.02,1.7-1.18,1.644-2.221.047-1.418.191-2.959.16-4.371-.278-3.463-.273-7.111-.443-10.564a1.414,1.414,0,0,0-1.556-1.283l-2.917-.016c-.377-.01-.722,0-1.062,0a18.632,18.632,0,0,1-2.046-.051c-1.479-.1-2.423-1.592-3.763-1.717a16.493,16.493,0,0,0-3.556.139,5.385,5.385,0,0,0-1.329.713c-.2.133-.49.3-.691.416a5.749,5.749,0,0,1-3.158.443c-.341-.01-.676-.025-.99-.02l-2.911-.016a1.569,1.569,0,0,0-1.8,1.025c-.645,5.01.145,10.023-.108,15.043a5.1,5.1,0,0,0,.088,1.2,1.357,1.357,0,0,0,1.237.922c1.4-.035,2.875-.17,4.256-.268C-8430.177,20531.564-8427.445,20531.523-8425.157,20531.719Zm-1.783-2.855a2.27,2.27,0,0,0-.535-.246l-.536-.27a10.525,10.525,0,0,1-.918-.768,2.247,2.247,0,0,1-.917-.818,4.415,4.415,0,0,1-.649-2.34,9.424,9.424,0,0,1,.475-3.459,3.594,3.594,0,0,1,.757-.891,4.444,4.444,0,0,1,.737-.846,5.7,5.7,0,0,1,2.9-1.871,5.084,5.084,0,0,1,3.53.352,3.036,3.036,0,0,1,1.056.576,5.637,5.637,0,0,1-.036,9.422,5.346,5.346,0,0,1-1.345,1c-.355.135-.742.141-1.1.248a8.584,8.584,0,0,1-1.958.314A2.516,2.516,0,0,1-8426.94,20528.863Zm-.757-8.2c-.088.1-.1.258-.248.32-.113.258-.066.582-.18.8a2.552,2.552,0,0,0-.186,2.236c.134.494.6.793.772,1.246a1.906,1.906,0,0,1,.283.691,4.867,4.867,0,0,0,1.181.912,1.639,1.639,0,0,1,.722.211,3.156,3.156,0,0,0,1.556.355,2.543,2.543,0,0,0,.763-.289,3.286,3.286,0,0,0,1.5-.711,4.673,4.673,0,0,0,.722-3.783,3.813,3.813,0,0,0-2.1-2.617c-.031-.01-.062-.016-.067-.078a1.628,1.628,0,0,0-.412-.211.406.406,0,0,0-.211,0,.943.943,0,0,1-.165,0,5.365,5.365,0,0,0-1.238-.145A3.428,3.428,0,0,0-8427.7,20520.664Zm-7.52-3.611a.848.848,0,0,1-.072-1.418,2.067,2.067,0,0,1,1.346-.309c.793-.016,2.216-.176,2.1,1.02-.165.949-1.3.768-2,.877a4.589,4.589,0,0,1-.535.039A1.565,1.565,0,0,1-8435.217,20517.053Z" transform="translate(8440.501 -20508.926)" fill="#040405" stroke="rgba(0,0,0,0)" stroke-width="1"/>
</svg>
