<svg id="caret--right" xmlns="http://www.w3.org/2000/svg" width="6.796" height="9.998" viewBox="0 0 6.796 9.998">
  <path id="arrow-right" d="M16.065,9.022c.873-1.478,2.081-2.188,3.365-3.351.1-.029-.839-.8-.645-.672-1.8-1.545-2.723-1.562-3.291-4.068a.76.76,0,0,1,.548-.925L16.069,0a5.765,5.765,0,0,1,3.406,1.75c.933.891,1.451,2,2.375,2.9a1.493,1.493,0,0,1,.409.858,1.6,1.6,0,0,1-.124.781,5.035,5.035,0,0,1-1.977,2.293c-.778.557-4.587,2.613-4.093.441" transform="translate(-15.47 0.001)" fill="#040405"/>
</svg>
