<svg id="caret--left" xmlns="http://www.w3.org/2000/svg" width="6.891" height="9.983" viewBox="0 0 6.891 9.983">
  <path id="arrow-left" d="M6.134,7.512C5.29,9.007,4.1,9.741,2.836,10.929c-.1.031.854.783.658.659,1.829,1.509,2.753,1.508,3.37,4a.76.76,0,0,1-.529.936l-.027.007a5.762,5.762,0,0,1-3.44-1.682C1.918,13.979,1.378,12.875.437,12a1.482,1.482,0,0,1-.426-.85,1.577,1.577,0,0,1,.108-.783A5.045,5.045,0,0,1,2.05,8.033c.767-.572,4.535-2.7,4.084-.521" transform="translate(0 -6.55)" fill="#040405"/>
</svg>
