<svg xmlns="http://www.w3.org/2000/svg" width="24" height="24" viewBox="0 0 24 24">
  <path id="circle-check" d="M7436,6081a12,12,0,1,1,8.485-3.515A11.922,11.922,0,0,1,7436,6081Zm-5-13.458a1.165,1.165,0,0,0-.929.479.988.988,0,0,0-.141.912,7.285,7.285,0,0,0,4.72,4.77c.081.007.16.011.237.011a2.41,2.41,0,0,0,1.876-.894,25.158,25.158,0,0,1,1.679-1.879,13.291,13.291,0,0,0,2.856-3.822c.075-.2.167-.408.265-.629a3.656,3.656,0,0,0,.483-2.371.892.892,0,0,0-1.2-.379,12.407,12.407,0,0,0-5.038,5.323l-.061.115-.058.11c-.187.354-.378.718-.588,1.059a13.421,13.421,0,0,0-3.5-2.613A1.03,1.03,0,0,0,7431,6067.542Z" transform="translate(-7423.999 -6057)" fill="#fff"/>
</svg>
