<svg width="30" height="30" viewBox="0 0 30 30" fill="none" xmlns="http://www.w3.org/2000/svg">
<path d="M7.02001 21.7703C6.90263 20.4988 7.34547 19.2645 7.21831 18.0012C7.10542 17.2345 7.16626 16.4515 7.39616 15.7125C7.33391 15.332 7.44062 14.9496 7.41039 14.569C7.35481 14.0917 7.36439 13.6087 7.43885 13.1341C7.92616 10.9725 10.1066 10.9543 11.9216 10.9044L11.942 10.8136C11.9163 10.604 11.9163 10.3919 11.942 10.1823C11.9605 10.012 11.9653 9.84036 11.9562 9.66921C11.9562 9.55749 11.9465 9.44669 11.9393 9.32772C11.8996 8.9642 11.9149 8.59661 11.9847 8.23785C12.0716 7.79322 12.2763 7.38148 12.5766 7.04756C12.8769 6.71363 13.2612 6.47034 13.6876 6.34422C14.5649 6.10061 15.4723 5.98864 16.3811 6.01181L16.792 6C17.0364 6.06552 17.288 6.09879 17.5407 6.099C17.7123 6.09867 17.8836 6.08409 18.0529 6.0554C18.0623 6.04227 18.0746 6.03162 18.0889 6.02435C18.1031 6.01708 18.1188 6.0134 18.1347 6.01362C18.1478 6.01266 18.1608 6.01266 18.1739 6.01362H18.1925C18.5696 6.04359 18.92 6.05813 19.2312 6.05813C19.4633 6.05813 19.6758 6.04995 19.8732 6.0336C19.9319 6.0336 19.9906 6.02815 20.0511 6.02815C20.7895 6.03596 21.4979 6.32784 22.035 6.84555C22.5849 7.35341 22.9256 8.05552 22.9883 8.81003C23.0087 9.27501 23.0024 9.74082 22.9696 10.2051C22.9563 10.4775 22.9447 10.7264 22.942 10.9416C22.9287 11.0924 22.9073 11.2459 22.8878 11.3957C22.853 11.6244 22.8298 11.8548 22.8184 12.086C22.7675 13.237 22.6461 14.3836 22.4547 15.519C22.5288 15.9413 22.5155 16.3746 22.4158 16.7913C22.3161 17.208 22.1322 17.5988 21.8758 17.9385C21.6383 18.1899 21.3508 18.3862 21.0326 18.5142C20.7144 18.6422 20.373 18.6989 20.0315 18.6806C19.5912 18.7078 19.1537 18.7713 18.7234 18.8704C18.5207 18.9112 18.3153 18.9521 18.109 18.9857C18.0547 19.4716 17.988 19.9539 17.9053 20.4143C18.0832 22.1736 17.3762 23.5559 15.4821 23.5759C14.3634 23.6113 13.2421 24.1317 12.1207 23.8956C11.8563 23.8833 11.5914 23.8961 11.3293 23.9337C11.035 23.9783 10.7366 23.9883 10.4401 23.9637C10.3 23.9563 10.1596 23.9563 10.0194 23.9637H9.80247C9.6818 23.988 9.55909 24.0001 9.4361 24C8.84141 23.9764 8.27372 23.7402 7.83214 23.3327C7.39056 22.9252 7.10312 22.3722 7.02001 21.7703ZM18.7234 16.925C19.154 17.0241 19.5918 17.0875 20.0324 17.1148C20.0531 17.1164 20.0739 17.1164 20.0946 17.1148C20.2809 17.0918 20.4541 17.0054 20.5864 16.8696L20.6006 16.8578C20.796 16.7545 20.9618 16.6011 21.0817 16.4127C21.2726 15.905 21.2886 15.3461 21.1271 14.8279C21.0977 14.659 21.0702 14.4991 21.0577 14.3674C20.975 13.8071 20.9394 13.2349 20.9056 12.6827C20.8701 12.1087 20.8336 11.5147 20.7429 10.9344L20.694 9.79727C20.6878 9.71553 20.6887 9.62652 20.6887 9.53206C20.6887 9.20601 20.6887 8.83546 20.4094 8.66562C20.2478 8.57114 20.0613 8.5305 19.8759 8.54937L19.6438 8.53756C19.4962 8.52848 19.3441 8.5194 19.1992 8.5194C19.1405 8.5194 19.0862 8.5194 19.0347 8.5194L18.4753 8.54574H18.4638C18.4174 8.54686 18.3711 8.5505 18.325 8.55664C18.2755 8.56314 18.2256 8.56708 18.1756 8.56844C18.1098 8.56844 18.0725 8.55664 18.0592 8.52939C17.8887 8.50063 17.7162 8.48605 17.5434 8.4858C17.2919 8.48592 17.0415 8.51889 16.7982 8.58388C15.9285 8.553 15.2171 8.51213 14.5573 8.45492C14.5122 8.44161 14.4655 8.43489 14.4186 8.43494C14.2273 8.45074 14.0448 8.52366 13.8938 8.64462C13.7428 8.76557 13.6299 8.92922 13.5693 9.11519C13.5256 9.42864 13.5175 9.74621 13.5453 10.0616C13.5632 10.3119 13.5632 10.5632 13.5453 10.8136L13.572 10.9044C13.5973 10.903 13.6227 10.9048 13.6476 10.9098C14.2065 10.9603 14.7684 10.967 15.3283 10.9298C16.0948 10.9001 16.8437 11.1701 17.422 11.6848C18.0004 12.1996 18.3647 12.9202 18.4406 13.6999C18.4878 14.3084 18.4006 15.2257 18.3944 15.8324C18.3651 16.1657 18.3055 16.4999 18.2779 16.8369C18.4264 16.8687 18.5758 16.8986 18.7234 16.9277V16.925Z" fill="#040405"/>
</svg>
