<svg xmlns="http://www.w3.org/2000/svg" width="16.031" height="14.317" viewBox="0 0 16.031 14.317">
  <path id="export" d="M-16502.719,7999.332c-.531-.015-1.062-.034-1.584-.026-2.42-.086-5.383.031-7.793-.167-.314-.042-.6-.054-.945-.125-1.393-.212-1.668-1.855-1.42-2.975a2.737,2.737,0,0,1,.127-.751c.035-.054.084-.1.061-.155-.018-.1.037-.205.018-.306,0-.2-.119-.4,0-.6a.859.859,0,0,1,1.484,0c.115.2-.006.4,0,.6-.021.1.035.2.018.3-.018.05.023.1.063.146a2.656,2.656,0,0,1,.152.76c.057.337.113.7.141,1.027l.15.027a33,33,0,0,0,4.553.22l3.4.031a33.826,33.826,0,0,0,3.617-.3.192.192,0,0,0,.17-.19l-.008-.124a10.36,10.36,0,0,1,.146-1.991c.08-.667.139-1.333.17-2a.745.745,0,0,1,.775-.706.746.746,0,0,1,.713.724c-.031,1.3.281,2.663.189,3.962a2.544,2.544,0,0,1-.533,1.814,2.261,2.261,0,0,1-1.832.835c-.154,0-.309.006-.465.006C-16501.811,7999.364-16502.266,7999.349-16502.719,7999.332Zm-9.875-2.312h.01a.177.177,0,0,0-.035-.014C-16512.627,7997.007-16512.615,7997.014-16512.594,7997.02Zm5.346-1.368-.012,0c-2.074-.674-3.215-2.507-4.062-4.207l0-.008a1.021,1.021,0,0,1,.078-.984,1.132,1.132,0,0,1,.938-.515,1.026,1.026,0,0,1,.633.221,13.471,13.471,0,0,1,2.795,2.618.87.87,0,0,0,.063-.085,5.258,5.258,0,0,1,1.334-1.426l2.24-1.715a1.117,1.117,0,0,1,.676-.229,1.123,1.123,0,0,1,.883.43,1.094,1.094,0,0,1-.025,1.375l-.006.007c-.209.225-.488.577-.785.945a12.805,12.805,0,0,1-2.057,2.22c-.131.085-.271.17-.4.248a3.675,3.675,0,0,0-.85.628,1.594,1.594,0,0,1-1.154.515A1.055,1.055,0,0,1-16507.248,7995.652Zm-.74-6.419.088-.2c.246-1.057-.689-4.563,1.146-3.9.57.295.637.954.707,1.489a19.084,19.084,0,0,1,.082,1.979c-.02.9.344,2.212-.949,2.344l-.068,0C-16507.6,7990.943-16508.316,7990.415-16507.988,7989.232Z" transform="translate(16514.543 -7985.047)" fill="#040405"/>
</svg>
