<svg xmlns="http://www.w3.org/2000/svg" width="8.775" height="16.516" viewBox="0 0 8.775 16.516">
  <path id="help" d="M-16692.023,7582.906a1.642,1.642,0,0,1-.6-.968,1.62,1.62,0,0,1,.213-1.152,1.4,1.4,0,0,1,.992-.712,1.654,1.654,0,0,1,1.236.243,1.389,1.389,0,0,1,.684,1.022,1.615,1.615,0,0,1-.293,1.173,1.619,1.619,0,0,1-1.039.687,1.64,1.64,0,0,1-.311.031A1.356,1.356,0,0,1-16692.023,7582.906Zm-.234-4.554a1.409,1.409,0,0,1-.428-.93l-.18-2.083a1.045,1.045,0,0,1,.289-.821,1.567,1.567,0,0,1,.322-.255l-.1-.059.535-.1a3.8,3.8,0,0,0,1.7-.691,2.377,2.377,0,0,0,.775-1.052,3.258,3.258,0,0,0,.205-1.177c0-.4-.016-.733-.037-.993a.941.941,0,0,0-.256-.633,1.13,1.13,0,0,0-.619-.293,2.916,2.916,0,0,0-.99.046,1.885,1.885,0,0,0-1,.457,1.487,1.487,0,0,0-.436.779,2.927,2.927,0,0,0-.043,1.018v.008a1.225,1.225,0,0,1-.436,1.106,1.364,1.364,0,0,1-1.043.356,1.288,1.288,0,0,1-.816-.369,1.532,1.532,0,0,1-.4-1.043,4.532,4.532,0,0,1,.775-3.063,4.6,4.6,0,0,1,3.053-1.751,4.358,4.358,0,0,1,2.268.134,4.256,4.256,0,0,1,1.8,1.169,3.221,3.221,0,0,1,.834,1.9,8.619,8.619,0,0,1-.3,3.088,4.6,4.6,0,0,1-1.617,2.347,5.487,5.487,0,0,1-1.713.859l.07.863a1.641,1.641,0,0,1-.268,1.089,1.091,1.091,0,0,1-.906.5A1.41,1.41,0,0,1-16692.258,7578.352Z" transform="translate(16695.236 -7566.714)"/>
</svg>
