<svg id="info-circle" xmlns="http://www.w3.org/2000/svg" width="17" height="17" viewBox="0 0 17 17">
  <path id="circle-info" d="M6336.5,6950a8.5,8.5,0,1,1,6.01-2.49A8.44,8.44,0,0,1,6336.5,6950Zm-.114-9.229a1.06,1.06,0,0,0-.79.308,1.75,1.75,0,0,0-.144,1.644,4.512,4.512,0,0,1,.144.924c0,.078.009.151.013.222l0,.087a5.96,5.96,0,0,0,.322,1.871c.064.392.392,1.02.548,1.05a.4.4,0,0,0,.087.009.41.41,0,0,0,.406-.292,10.82,10.82,0,0,0,.312-2.713c.013-.516.028-1.1.086-1.838a1.61,1.61,0,0,0-.337-1.036A.913.913,0,0,0,6336.386,6940.771Zm-.329-1.268h0a.681.681,0,0,0,.566.261,1.325,1.325,0,0,0,1.192-.861,1.345,1.345,0,0,0-.224-1.189,1.541,1.541,0,0,0-1.218-.589,1.49,1.49,0,0,0-.819.245,1.391,1.391,0,0,0-.57.8,1,1,0,0,0,.121.947.883.883,0,0,0,.707.441.6.6,0,0,0,.244-.051Z" transform="translate(-6328 -6933)"/>
</svg>
