<svg width="30" height="30" viewBox="0 0 30 30" fill="none" xmlns="http://www.w3.org/2000/svg">
<path d="M11.5647 21.7188C11.5348 20.935 11.5855 20.1502 11.7159 19.3778C11.5869 19.3862 11.4589 19.4012 11.3334 19.4161H11.3228C11.1188 19.4433 10.9137 19.4589 10.7082 19.4629C10.6169 19.4631 10.5257 19.4578 10.4351 19.447C10.396 19.447 10.3221 19.447 10.2412 19.447C10.1389 19.447 10.0544 19.447 10.0153 19.4544H9.79736C9.67609 19.4796 9.55275 19.4921 9.42913 19.4918C8.8338 19.4671 8.26567 19.2233 7.82408 18.8031C7.3825 18.3828 7.09554 17.8129 7.0134 17.1929C6.97827 16.547 7.01228 15.8991 7.11479 15.2612C7.21931 14.6179 7.25214 13.964 7.21263 13.3127C7.09975 12.5237 7.1606 11.7181 7.39052 10.9577C7.36485 10.742 7.36485 10.5238 7.39052 10.3082C7.40906 10.1329 7.41382 9.95629 7.40475 9.78018C7.40475 9.66523 7.39497 9.55028 7.38785 9.42879C7.34811 9.05475 7.36341 8.67651 7.43322 8.30736C7.90818 6.11588 9.9886 6.06074 11.8235 6.01215L12.2371 6C12.4813 6.06736 12.7327 6.10159 12.9851 6.10186C13.1571 6.10157 13.3287 6.08657 13.4984 6.05701C13.5077 6.04349 13.5201 6.03254 13.5343 6.02506C13.5485 6.01758 13.5643 6.01379 13.5802 6.01402C13.5932 6.01303 13.6063 6.01303 13.6193 6.01402H13.638C14.0151 6.04486 14.3656 6.05981 14.6769 6.05981C14.909 6.05981 15.1216 6.0514 15.319 6.03458C15.3778 6.03458 15.4365 6.02897 15.4969 6.02897C16.2356 6.037 16.9441 6.33733 17.4813 6.87005C18.0307 7.39032 18.3723 8.10984 18.4374 8.88396C18.4579 9.36242 18.4516 9.84171 18.4188 10.3194C18.4188 10.3998 18.4108 10.4792 18.4081 10.5568C18.8958 10.5935 19.3853 10.5935 19.873 10.5568C20.6398 10.5259 21.3889 10.8037 21.9674 11.3334C22.546 11.8631 22.9103 12.6048 22.9861 13.4071C23.0332 14.0332 22.9461 14.978 22.9398 15.6014C22.906 15.992 22.8286 16.3836 22.8162 16.7779C22.7646 17.9622 22.6431 19.142 22.4524 20.3105C22.6303 22.1197 21.9232 23.5421 20.0287 23.5636C18.9097 23.6 17.7882 24.1355 16.6666 23.8916C16.4024 23.8796 16.1377 23.8931 15.8758 23.9318C15.5814 23.9772 15.283 23.9876 14.9864 23.9626C14.8463 23.9547 14.7058 23.9547 14.5657 23.9626H14.3487C14.228 23.9876 14.1052 24.0002 13.9822 24C13.3891 23.9764 12.8225 23.7353 12.3809 23.3186C11.9393 22.9019 11.6505 22.3359 11.5647 21.7188ZM20.0287 21.9665C20.1353 21.9671 20.2409 21.9443 20.3387 21.8998C20.4366 21.8552 20.5245 21.7898 20.597 21.7076C20.7923 21.6006 20.958 21.4426 21.0782 21.2487C21.4126 20.7376 21.1076 19.7114 21.0542 19.1451C20.8852 17.9685 20.9163 16.7854 20.7393 15.6126L20.6913 14.4351C20.6628 14.0547 20.7678 13.4949 20.4067 13.2707C20.2428 13.1722 20.0536 13.1303 19.8659 13.151C19.5928 13.1389 19.2975 13.108 19.0254 13.1249L18.4659 13.152C18.4142 13.1525 18.3625 13.1563 18.3111 13.1632C18.1937 13.1772 18.0728 13.1903 18.0443 13.1351C17.6248 13.0602 17.1949 13.0796 16.7831 13.1921C16.0359 13.165 15.2888 13.1267 14.5417 13.0594C14.3273 13.033 14.1109 13.0865 13.9302 13.2107C13.7496 13.3349 13.6163 13.5218 13.5535 13.7389C13.4539 14.3042 13.5846 14.9182 13.5313 15.4864C13.7594 16.2472 13.8185 17.0529 13.7038 17.8414C13.6851 18.8273 13.7542 19.8129 13.9102 20.7852C13.9182 21.0095 14.056 21.0151 14.1912 21.1076C14.2567 21.2206 14.334 21.3256 14.4216 21.4207C14.4563 21.4945 14.4652 21.5702 14.5595 21.5646C14.6431 21.5749 14.8921 21.5721 14.9802 21.5646C15.2768 21.5385 15.5752 21.5486 15.8696 21.5945C16.1321 21.6332 16.3973 21.6467 16.6621 21.6347C16.867 21.5912 17.0757 21.5699 17.2847 21.5712C18.2009 21.5749 19.1161 21.9366 20.0287 21.9665Z" fill="#040405"/>
</svg>
