<svg width="24" height="25" viewBox="0 0 24 25" fill="none" xmlns="http://www.w3.org/2000/svg">
<path d="M13.8629 11.2928C14.0446 11.3967 14.2004 11.4486 14.434 11.5005C14.4859 11.5005 14.5379 11.5265 14.5898 11.5265H14.6936H14.9273L15.3167 11.5525L16.0955 11.5784C16.6147 11.6044 17.1339 11.6303 17.6272 11.6303C18.6656 11.6563 19.6781 11.6823 20.7165 11.6823H21.3395H21.6511H21.8068C21.8847 11.6823 21.9626 11.6823 22.0405 11.6563C22.6895 11.5784 23.2866 11.189 23.65 10.6438C23.7279 10.514 23.8058 10.3583 23.8577 10.2025C23.8837 10.1246 23.9096 10.0467 23.9356 9.96886C23.9356 9.91694 23.9616 9.89098 23.9616 9.83906L23.9875 9.70925V9.63137V9.60541V9.57945V9.50157V9.44965V9.39773V9.31984V9.00832L23.9616 7.76221L23.8577 2.8297L23.8837 2.54414C23.8837 2.49221 23.8837 2.46625 23.8837 2.38837C23.8837 2.31049 23.8837 2.25857 23.8837 2.18069C23.8577 1.89512 23.8058 1.63552 23.676 1.37591C23.4164 0.856699 22.975 0.44133 22.4039 0.259606C22.326 0.233645 22.2741 0.207685 22.1703 0.207685L22.0405 0.181724L21.9366 0.155763H21.8587H21.8328H21.8068H21.7549H21.6251L21.0799 0.129803L19.9636 0.0778817C18.432 0.0259606 16.9262 0 15.4205 0H14.8494H14.7715H14.6677C14.5898 0 14.5119 0 14.434 0.0259606C14.2783 0.0519211 14.1225 0.0778817 13.9667 0.129803C13.3696 0.311527 12.8504 0.778817 12.5649 1.34995C12.487 1.47975 12.4351 1.63552 12.3831 1.79128C12.3572 1.86916 12.3312 1.94704 12.3312 2.05088C12.3053 2.15473 12.3053 2.25857 12.3053 2.28453V2.36241V2.44029V2.46625V2.59606V2.90758V4.02389C12.3053 5.5296 12.3053 7.03531 12.2793 8.51507C12.2793 8.77467 12.461 9.19004 12.5649 9.31984C12.8245 9.57945 13.0322 9.24196 13.1879 8.74871C13.7071 7.08723 13.9408 5.03635 13.9927 2.98547L14.0187 2.51818V2.46625V2.44029C14.0187 2.46625 14.0187 2.38837 14.0187 2.46625V2.44029V2.33645L14.0446 2.25857C14.0965 2.12877 14.1744 1.99896 14.3042 1.92108C14.434 1.8432 14.5638 1.81724 14.7196 1.81724L15.6542 1.8432C16.9003 1.86916 18.1464 1.92108 19.3925 1.94704L21.2617 1.973H21.7289C21.8587 1.973 21.8068 1.973 21.8847 1.99896C21.9885 2.02492 22.0664 2.10281 22.1184 2.18069C22.1443 2.23261 22.1703 2.25857 22.1703 2.31049C22.1703 2.33645 22.1703 2.36241 22.1962 2.38837C22.1962 2.41433 22.1962 2.41433 22.1962 2.44029C22.1962 2.46625 22.1962 2.51818 22.1962 2.54414V3.47872C22.1962 4.10177 22.2222 4.72482 22.2482 5.34788C22.2222 5.97093 22.2222 6.59398 22.1962 7.19108L22.1703 8.67083V9.39773V9.44965C22.1703 9.47561 22.1703 9.52753 22.1703 9.52753C22.1703 9.55349 22.1443 9.60541 22.1184 9.63137C22.0405 9.76117 21.9107 9.83906 21.7809 9.83906H20.353C19.3665 9.83906 18.38 9.86502 17.4195 9.89098L15.9138 9.91694L14.6157 9.96886C14.4081 9.96886 14.1744 9.83906 13.9927 9.70925C13.811 9.57945 13.6552 9.39773 13.4216 9.42369C13.2139 9.44965 13.0062 9.70925 13.0581 10.1765C13.0841 10.4102 13.1879 10.6958 13.4216 10.9294C13.5514 11.0852 13.6812 11.215 13.8629 11.2928Z" fill="black"/>
<path d="M3.8162 10.4101C3.86813 10.4621 4.07581 10.4361 4.20561 10.3842C4.43926 10.2803 4.51714 10.0467 4.51714 9.83902C4.5431 9.11212 4.25753 8.51503 3.86813 8.04774C3.53064 7.63237 3.19315 7.19104 2.8297 6.77567C3.06335 6.80163 3.32295 6.82759 3.5566 6.82759C4.38734 6.80163 5.21808 6.69779 6.04881 6.64587C7.52857 7.217 9.06024 6.90547 10.54 7.00931C10.6179 7.00931 10.7217 6.82759 10.7477 6.72375C10.8256 6.46414 10.7217 6.25646 10.5919 6.10069C10.1765 5.52956 9.65733 5.29592 9.13812 5.24399C7.89201 5.08823 6.64591 4.88055 5.3998 5.03631C5.24404 5.01035 5.08827 4.98439 4.93251 4.98439C4.36138 4.93247 3.81621 4.90651 3.24507 4.93247C3.86813 4.36134 4.43926 3.73828 4.93251 3.03735C5.11423 2.75178 5.16615 2.38833 4.82867 2.07681C4.51714 1.79124 4.12773 1.73932 3.84217 1.947C3.34891 2.31045 2.8297 2.69986 2.41433 3.14119C1.7134 3.86808 1.09035 4.62094 0.441332 5.3738C0.181726 5.58148 0.103844 5.94493 0.259608 6.25646L0.311529 6.43818C1.16823 8.04774 2.64798 9.0602 3.8162 10.4101Z" fill="black"/>
<path d="M0.103842 22.6116C0.103842 22.6895 0.103842 22.7414 0.103842 22.8193C0.129803 23.1049 0.181724 23.3645 0.311527 23.6241C0.571132 24.1433 1.01246 24.5587 1.58359 24.7404C1.66148 24.7663 1.7134 24.7923 1.81724 24.7923L1.94704 24.8183L2.05088 24.8442H2.12877H2.15473H2.18069H2.23261H2.36241L2.90758 24.8702L4.02389 24.9221C5.5296 24.974 7.00935 25 8.51507 25H9.0862H9.16408H9.26792C9.3458 25 9.42369 25 9.50157 24.974C9.65733 24.9481 9.81309 24.9221 9.96886 24.8702C10.5919 24.6625 11.1111 24.2212 11.3707 23.65C11.4486 23.5202 11.5005 23.3645 11.5525 23.2087C11.5784 23.1308 11.6044 23.0529 11.6044 22.9491C11.6303 22.8453 11.6303 22.7414 11.6303 22.7155V22.6376V22.5597V22.5337V22.4039V22.1184V21.0021C11.6303 19.4963 11.6303 17.9906 11.6563 16.5109C11.6563 16.2513 11.4746 15.8359 11.3707 15.7061C11.1111 15.4465 10.9034 15.784 10.7477 16.2772C10.2285 17.9387 9.99482 19.9896 9.9429 22.0405L9.91694 22.5078V22.5597V22.5857C9.91694 22.5597 9.91694 22.6376 9.91694 22.5597V22.5857V22.6895V22.7674C9.86502 22.8972 9.78713 23.027 9.65733 23.1049C9.52753 23.1827 9.39773 23.2087 9.24196 23.2087L8.30738 23.1827C7.06127 23.1568 5.81517 23.1049 4.56906 23.0789L2.6999 23.0529H2.23261C2.10281 23.0529 2.15473 23.0529 2.07685 23.027C1.973 23.001 1.89512 22.9231 1.8432 22.8453C1.81724 22.7933 1.79128 22.7674 1.79128 22.7155C1.79128 22.6895 1.79128 22.6635 1.76532 22.6376C1.76532 22.6116 1.76532 22.6116 1.76532 22.5857C1.76532 22.5597 1.76532 22.5078 1.76532 22.4818V21.5472C1.76532 20.9242 1.73936 20.3011 1.7134 19.6781C1.73936 19.055 1.73936 18.432 1.76532 17.8349L1.79128 16.3551V15.6282V15.5763C1.79128 15.5503 1.79128 15.4984 1.79128 15.4984C1.79128 15.4725 1.81724 15.4205 1.8432 15.3946C1.92108 15.2648 2.05088 15.1869 2.18069 15.1869H3.60852C4.59502 15.1869 5.58152 15.1609 6.54206 15.135L7.99585 15.083L9.29388 15.0311C9.50157 15.0311 9.73521 15.1609 9.91694 15.2907C10.0987 15.4205 10.2544 15.6023 10.4881 15.5763C10.6958 15.5503 10.9034 15.2907 10.8515 14.8234C10.8256 14.5898 10.7217 14.3042 10.4881 14.0706C10.3842 13.9408 10.2285 13.8369 10.0727 13.7331C9.89098 13.6293 9.73521 13.5773 9.50157 13.5254C9.44965 13.5254 9.39773 13.4995 9.3458 13.4995H9.24196H9.00832L8.61891 13.4735L7.84009 13.4475C7.32088 13.4216 6.80167 13.3956 6.30842 13.3956C5.27 13.3696 4.25753 13.3437 3.21911 13.3437H2.59606H2.28453H2.12877C2.05088 13.3437 1.973 13.3437 1.89512 13.3696C1.24611 13.4475 0.649014 13.8369 0.285566 14.3821C0.207685 14.5119 0.129803 14.6677 0.0778817 14.8234C0.0519211 14.9013 0.0259606 14.9792 0 15.0571C0.0519211 15.083 0.0519211 15.135 0.0519211 15.1609L0.0259605 15.2907V15.3686V15.3946V15.4205V15.4984V15.5503V15.6282V15.7061V16.0176L0.0519211 17.2637L0.155763 22.2222L0.129803 22.5078C0.129803 22.5337 0.129803 22.5597 0.103842 22.6116Z" fill="black"/>
<path d="M18.5876 19.9896C18.7434 20.0156 18.8991 20.0415 19.0549 20.0415C19.626 20.0934 20.1712 20.1194 20.7423 20.0934C20.1193 20.6646 19.5481 21.2876 19.0549 21.9886C18.8732 22.2741 18.8212 22.6376 19.1587 22.9491C19.4703 23.2347 19.8597 23.2866 20.1452 23.0789C20.6385 22.7155 21.1577 22.3261 21.5731 21.8847C22.274 21.1578 22.897 20.405 23.5461 19.6521C23.8057 19.4185 23.8835 19.055 23.7278 18.7435L23.6759 18.5877C22.8192 16.9782 21.3394 15.9398 20.1712 14.6158C20.1193 14.5638 19.9116 14.5898 19.7818 14.6417C19.5481 14.7456 19.4703 14.9792 19.4703 15.1869C19.4443 15.9138 19.7299 16.5109 20.1193 16.9782C20.4568 17.3935 20.7942 17.8349 21.1577 18.2502C20.924 18.2243 20.6644 18.1983 20.4308 18.1983C19.6001 18.2243 18.7693 18.3281 17.9386 18.38C16.4588 17.8089 14.9272 18.1204 13.4474 18.0166C13.3695 18.0166 13.2657 18.1983 13.2397 18.3022C13.1618 18.5618 13.2657 18.7695 13.3955 18.9252C13.8108 19.4444 14.3301 19.6781 14.8493 19.73C16.0694 19.9377 17.3155 20.1713 18.5876 19.9896Z" fill="black"/>
</svg>
