<svg width="23" height="23" viewBox="0 0 23 23" fill="none" xmlns="http://www.w3.org/2000/svg">
<path d="M11.3827 14.75V8.234L9.96667 9.134L9.35467 8.078L11.6707 6.506H12.8707V14.75H11.3827Z" fill="black"/>
<path d="M7.74765 20.532C7.65327 20.4943 7.56361 20.4471 7.47395 20.4046L6.92656 20.1451C6.22344 19.7487 5.53448 19.3145 4.9399 18.7624C4.62373 18.5076 4.35475 18.2009 4.07633 17.9083C3.93005 17.7667 3.82151 17.5921 3.68938 17.4364C3.56669 17.2712 3.42984 17.125 3.32131 16.9503C3.10896 16.6059 2.86357 16.2755 2.69369 15.9028C2.60403 15.7187 2.50022 15.5441 2.41527 15.3554L2.19349 14.7891C1.4998 13.062 1.41015 11.4481 0.947692 11.5897C0.754216 11.6557 0.603211 12.0521 0.513551 12.7175C0.504113 13.0478 0.499394 13.4442 0.541865 13.8925C0.579616 14.1143 0.622086 14.3502 0.669275 14.5956C0.697589 14.7183 0.716465 14.8457 0.754216 14.9731C0.796686 15.0958 0.839156 15.2232 0.881627 15.3554C1.16948 16.2991 1.64137 17.1721 2.16045 18.0121C2.45303 18.4132 2.722 18.8285 3.06649 19.1918L3.31187 19.4703C3.39209 19.5646 3.47703 19.659 3.56669 19.7392L4.10937 20.2489C4.86439 20.8906 5.68548 21.4805 6.59624 21.8958C7.03509 22.1364 7.51642 22.2874 7.9836 22.462C8.21954 22.547 8.46493 22.5942 8.70559 22.6602C8.95097 22.7216 9.1822 22.7924 9.44646 22.8207L10.0646 22.9103L10.3714 22.9528L10.6498 22.967L11.2113 22.9906L11.3529 22.9953L11.4237 23H11.4567H11.4992H11.5039H11.5133H11.5322L11.8342 22.9858C12.2353 22.9575 12.6364 22.9622 13.0328 22.882C13.4292 22.816 13.8256 22.7688 14.2126 22.6508C15.7651 22.2591 17.228 21.5324 18.4785 20.5414C19.7243 19.5505 20.7719 18.3047 21.4939 16.889L21.7487 16.351C21.8289 16.1717 21.9233 15.9971 21.9846 15.8037L22.1828 15.2421L22.2819 14.9637C22.3102 14.8693 22.3291 14.7702 22.3574 14.6758L22.499 14.1001C22.5226 14.001 22.5509 13.9114 22.5651 13.8076L22.6075 13.5055C22.6594 13.1044 22.7349 12.6892 22.7349 12.3258C22.8954 10.9384 22.7868 9.46615 22.3857 8.0835C21.9893 6.69142 21.3051 5.37485 20.3896 4.23287C19.4742 3.09089 18.3322 2.12351 17.0392 1.41096L16.0435 0.924908C15.699 0.792778 15.3498 0.665367 15.0053 0.537956C14.6514 0.43414 14.2928 0.3492 13.9342 0.254822C13.5661 0.179319 13.1744 0.13213 12.7969 0.0755027L12.6553 0.056627L12.5279 0.0471892L12.2731 0.0330324L11.7634 0.00943783L11.636 0.00471892L11.5747 0H11.5086H11.4898H11.4567L11.1783 0.0141568L10.612 0.0283135L10.3336 0.0424703C10.244 0.0519081 10.1496 0.0707838 10.0599 0.0802216L9.51253 0.169881C9.14445 0.212351 8.79053 0.325605 8.43189 0.415265C7.00678 0.806935 5.65717 1.48174 4.48688 2.38305C3.31187 3.27965 2.31618 4.40275 1.55643 5.66742C1.46205 5.82786 1.35824 5.97887 1.27802 6.14403L1.03735 6.63952C0.961848 6.80468 0.872189 6.96984 0.801405 7.13972L0.60793 7.6588C0.546584 7.8334 0.4758 8.00328 0.419173 8.17788L0.277605 8.71112L0.136038 9.24908L0.0416595 9.82007C-0.0763134 10.3958 0.0841298 11.1272 0.178508 11.3773C0.390859 11.8586 0.598492 11.2593 0.815562 10.3486C1.23083 8.84797 1.93395 7.33792 2.95323 5.97887C3.0712 5.80427 3.22693 5.65326 3.35906 5.4881L3.56669 5.24272L3.67051 5.12002L3.78376 5.00677C3.93477 4.85577 4.09049 4.70476 4.2415 4.54904L4.35475 4.43578L4.48216 4.33197L4.73226 4.12433C5.05315 3.83176 5.42122 3.59581 5.77986 3.34099C5.95446 3.20886 6.15738 3.1192 6.34141 3.00595C6.53017 2.89741 6.71421 2.77472 6.91712 2.6945C7.85619 2.20845 8.88491 1.9206 9.92307 1.76959C10.1826 1.74128 10.4422 1.68465 10.7064 1.68937L11.0981 1.67522L11.2963 1.6705L11.3954 1.66578H11.4426H11.4662H11.4756L12.2967 1.7224L12.509 1.73656C12.5798 1.74128 12.6364 1.75544 12.6978 1.76487L13.0706 1.83094L13.4434 1.89229C13.5661 1.91588 13.6935 1.95835 13.8209 1.99138L14.1984 2.0952C14.3258 2.12823 14.4485 2.16126 14.5712 2.21317L15.2979 2.49159C15.5339 2.60484 15.7651 2.72282 15.9963 2.84079C16.9118 3.33627 17.747 3.96861 18.469 4.70948C19.191 5.45507 19.7762 6.32335 20.2339 7.24826L20.3991 7.59746L20.484 7.77206L20.5501 7.95609L20.8143 8.68281L21.0031 9.43311C21.0172 9.49446 21.0361 9.55581 21.0503 9.62187L21.0786 9.81535L21.1352 10.1976L21.1966 10.5798L21.2154 10.9668L21.2343 11.3537L21.2438 11.5472V11.5661V11.6085L21.239 11.7124L21.2013 12.557C21.173 12.8166 21.1258 13.0478 21.0975 13.2979C20.9229 14.2936 20.5973 15.3082 20.1254 16.2331C19.6063 17.1249 18.9598 17.9366 18.2095 18.6397C15.8406 20.8859 12.3297 21.7825 9.19164 20.9897L8.60649 20.8387L8.0355 20.6311L7.74765 20.532Z" fill="black"/>
</svg>
