<svg width="56" height="32" viewBox="0 0 56 32" fill="none" xmlns="http://www.w3.org/2000/svg">
<path d="M22.9903 25.9768C22.8429 25.9689 22.6509 25.9642 22.4288 25.9642C21.0293 25.9413 18.6788 25.9031 18.2355 24.6627C18.0062 23.7888 17.9434 22.8796 18.0513 21.9821C18.064 21.7557 18.0751 21.5466 18.0829 21.3401C18.1154 20.3619 18.1315 19.3677 18.1472 18.4044C18.1551 17.7887 18.1632 17.1487 18.1789 16.5181C18.2546 13.1793 18.3651 9.59899 18.6924 6.0556C18.6953 6.02837 18.7002 6.00141 18.7078 5.9751C18.6842 5.89392 18.6894 5.80701 18.7212 5.72877C18.7382 5.68643 18.7641 5.64762 18.797 5.61627C18.8299 5.58491 18.8684 5.56115 18.9112 5.54644C19.8827 5.23708 20.8991 5.09431 21.9172 5.12359C22.4087 5.12359 22.9202 5.14446 23.4116 5.16433C23.7988 5.18022 24.1979 5.19615 24.596 5.20409C24.7424 5.20409 24.8994 5.20409 25.0586 5.20409C26.067 5.20409 27.0902 5.15184 28.0829 5.10517C29.0755 5.05849 30.1082 5.00043 31.1244 5.00043C31.2001 5.00043 31.2714 5.00043 31.348 5.00043C31.4602 4.99566 31.5703 5.03106 31.6599 5.09935C31.7496 5.16763 31.8131 5.26452 31.8394 5.37478C32.4604 5.75552 33.0029 6.25406 33.4375 6.84213C33.6281 7.06756 33.8083 7.27981 33.9951 7.47445C34.059 7.53976 34.1032 7.62232 34.1227 7.71206C34.1575 7.73909 34.1854 7.77341 34.2053 7.81292C34.2252 7.85244 34.2368 7.89565 34.2379 7.93997C34.2627 8.44198 34.3147 8.94205 34.3934 9.43835C34.4062 9.50688 34.416 9.57631 34.4327 9.6488C34.4817 9.84607 34.5034 10.0488 34.4961 10.252C35.4217 10.267 36.3157 10.5951 37.0357 11.1831C37.5329 11.5673 37.8662 12.1281 37.9676 12.7522C38.069 13.3764 37.9304 14.0169 37.5808 14.5416C37.5493 14.5848 37.5086 14.6199 37.4618 14.6453C37.1787 15.1171 36.8958 15.6126 36.597 16.135C36.0073 17.1738 35.3933 18.2454 34.7034 19.2763C34.8593 19.893 34.8521 20.5411 34.6813 21.1539C34.6332 21.427 34.5886 21.685 34.5729 21.9064C34.565 22.0107 34.5567 22.1115 34.5498 22.2168C34.5161 23.1104 34.4014 23.9989 34.2062 24.8712C34.1899 24.9612 34.1437 25.0436 34.0747 25.103C34.0058 25.1623 33.9186 25.1951 33.8281 25.1971C33.8212 25.3131 33.7764 25.424 33.7004 25.5113C33.6517 25.5652 33.5909 25.6073 33.5238 25.6344C33.4568 25.6616 33.3848 25.6734 33.3127 25.6684C32.9942 25.6555 32.6557 25.6471 32.3097 25.6471C30.9859 25.6471 29.6394 25.7362 28.3362 25.8207C27.033 25.9051 25.6771 25.9894 24.3493 25.9894C23.8707 26.0083 23.4286 26.0006 22.9903 25.9768ZM19.3201 6.16325C19.5354 9.81421 19.5281 13.4752 19.2971 17.1252C19.2125 19.0379 19.1285 21.0155 19.1128 22.9442C19.0961 24.7605 20.4032 24.8209 22.0612 24.8974L22.2522 24.909C22.8783 24.9378 23.4954 24.9536 24.0969 24.9536C24.7387 24.9536 25.3751 24.938 25.9992 24.9013C26.5889 24.8695 27.1834 24.8294 27.7613 24.7936C29.2562 24.6943 30.7978 24.5948 32.3241 24.5948C32.6671 24.5948 33.0008 24.6033 33.3252 24.6113H33.3453C33.4338 23.93 33.4767 23.2336 33.521 22.5533C33.5445 22.1561 33.573 21.7443 33.6045 21.3371C33.6172 21.2249 33.6216 21.0875 33.6256 20.9395C33.6256 20.8829 33.6254 20.8237 33.6332 20.7582C32.9139 21.6971 32.0306 22.4954 31.0275 23.1139C31.0265 23.2206 30.9886 23.3238 30.92 23.4048C30.8513 23.4859 30.7564 23.5398 30.6522 23.5571C30.0389 23.6991 29.4251 23.9035 28.8315 24.1012C27.7153 24.5471 26.5308 24.7954 25.3312 24.8343C25.2594 24.8339 25.1892 24.8177 25.1239 24.7878C25.0585 24.7578 24.9997 24.714 24.9521 24.6598C24.8996 24.5932 24.8622 24.5164 24.8417 24.4338C24.8212 24.3512 24.8179 24.2654 24.8331 24.1817C25.0327 22.4023 25.4256 20.6508 26.004 18.9582C26.027 18.8993 26.0622 18.8465 26.1086 18.804C26.1549 18.7614 26.2106 18.7303 26.2708 18.7128C26.2975 18.6757 26.3314 18.6433 26.3697 18.6187C27.9492 17.3801 29.29 15.8598 30.3268 14.1323C31.1266 12.879 32.0463 11.7076 33.0727 10.6361C33.1269 10.5843 33.1925 10.5466 33.2637 10.5246C33.3044 10.4744 33.3584 10.4365 33.4192 10.4159C33.4634 10.403 33.5026 10.3919 33.5469 10.383C33.4578 10.0941 33.427 9.79086 33.4557 9.48975V9.44126C33.4557 9.23172 33.4706 9.0213 33.4902 8.81572C33.387 8.86438 33.2796 8.90496 33.1764 8.94568C33.1007 8.97349 33.0291 9.00225 32.9652 9.03005C32.4738 9.24357 31.9824 9.45284 31.491 9.66238C31.4149 9.69767 31.332 9.71538 31.2482 9.71475C31.1042 9.71754 30.9644 9.66225 30.8604 9.56152C30.8168 9.51486 30.7836 9.45981 30.7616 9.39956C30.7396 9.3393 30.7295 9.27554 30.7328 9.21141C30.7416 8.84098 30.7536 8.47023 30.7654 8.10775C30.789 7.45131 30.8126 6.77166 30.8086 6.09536C30.1639 6.12317 29.5058 6.15841 28.868 6.19913C27.8163 6.25971 26.7268 6.32424 25.6585 6.32424C25.2801 6.32424 24.9294 6.31586 24.5864 6.30096C24.2159 6.28408 23.8377 6.26361 23.4711 6.24374C22.4981 6.19111 21.4894 6.13512 20.4977 6.13512C20.081 6.13413 19.6936 6.14239 19.3201 6.16325ZM26.1192 22.7027C26.1024 22.795 26.0879 22.8915 26.0712 22.9849C26.1878 23.0918 26.3129 23.1888 26.4455 23.2749C26.5426 23.3349 26.6447 23.3876 26.7497 23.432C26.8372 23.4717 26.9291 23.5123 27.0156 23.56C27.051 23.552 27.0878 23.5398 27.1192 23.5319C26.9757 23.4236 26.8364 23.3105 26.7008 23.1982C26.6526 23.1575 26.6088 23.1176 26.5606 23.0809C26.4172 22.9647 26.2735 22.836 26.1182 22.6901L26.1192 22.7027ZM26.2996 21.696L26.2756 21.8211C26.8074 21.8402 27.3187 22.0352 27.7297 22.3768C28.0094 22.5837 28.2508 22.8383 28.4437 23.1294L28.5992 23.0809C28.8459 22.9965 29.1058 22.9082 29.3603 22.8278C29.2313 22.799 29.0985 22.7893 28.9668 22.7996C28.8863 22.8041 28.8056 22.7868 28.7345 22.7482C28.6635 22.7097 28.6045 22.6517 28.5637 22.5814C28.5192 22.505 28.4945 22.4189 28.4917 22.3303C28.489 22.2416 28.5087 22.1534 28.5483 22.0742C28.5986 21.9993 28.6292 21.9131 28.6376 21.823C28.646 21.7329 28.6318 21.6413 28.5963 21.5583C28.5588 21.5076 28.5088 21.4683 28.4514 21.4429C28.3941 21.4175 28.3314 21.4073 28.2691 21.4138C28.2297 21.4138 28.1856 21.4136 28.1414 21.4215C28.1092 21.4291 28.0756 21.4319 28.0425 21.4303C27.9789 21.4336 27.9153 21.4242 27.8554 21.4021C27.7955 21.38 27.7407 21.3463 27.6941 21.3022C27.6476 21.2582 27.6105 21.205 27.5847 21.1461C27.559 21.0872 27.5453 21.0233 27.5444 20.9589C27.53 20.7108 27.4261 20.4767 27.2517 20.3014C27.0773 20.1261 26.8447 20.0217 26.599 20.0085C26.5096 20.5716 26.4038 21.1408 26.2996 21.696ZM34.689 16.552C33.2973 18.6584 31.8587 20.8363 29.6031 21.6824C29.6031 21.744 29.6031 21.8042 29.6031 21.8609C29.9983 21.8912 30.3697 22.0601 30.6541 22.339C32.6648 19.9898 34.4931 17.4869 36.1219 14.8529C36.2861 14.6066 36.4453 14.3571 36.6134 14.1168C36.5652 14.0999 36.5147 14.0843 36.4655 14.0635C35.8288 14.8603 35.2357 15.6912 34.688 16.553L34.689 16.552ZM31.85 16.7576C31.5188 17.0556 31.1763 17.3539 30.8432 17.6518C29.9034 18.4187 29.0361 19.2722 28.2518 20.2005C28.3055 20.2864 28.352 20.3759 28.3919 20.4692C28.6245 20.4759 28.8512 20.5469 29.0465 20.6748C29.2418 20.8026 29.3983 20.9828 29.4995 21.1946C31.225 19.9642 32.6439 18.3449 33.6448 16.4657C34.2554 15.452 34.9362 14.4831 35.6814 13.5659C35.6057 13.5054 35.5343 13.445 35.4655 13.3923C35.3967 13.3397 35.3295 13.2759 35.2745 13.2352C35.1713 13.1548 35.0631 13.0743 34.9481 12.9899C34.0593 14.36 33.0198 15.6233 31.85 16.7576ZM31.373 14.4621C30.0953 16.2983 28.7825 18.195 26.7776 19.3102C26.7608 19.3186 26.7427 19.3261 26.7248 19.3315C27.1343 19.3401 27.5304 19.4822 27.8525 19.7379C28.5584 18.7036 29.4004 17.7714 30.3556 16.9671C30.6505 16.693 30.9535 16.4151 31.2405 16.1331C31.7151 15.645 32.1556 15.125 32.5593 14.5755C33.0849 13.8391 33.6935 13.1666 34.3732 12.5728C34.0286 12.3271 33.713 12.0427 33.4327 11.7242C32.6944 12.5984 32.0066 13.5142 31.372 14.4679L31.373 14.4621ZM35.071 11.8969C35.1693 11.9813 35.2506 12.0446 35.2869 12.0734C35.6535 12.3395 36.1353 12.6817 36.6297 13.0015C36.669 13.0243 36.7215 13.0523 36.7736 13.0762C36.8555 13.1157 36.9334 13.1625 37.0078 13.2149C37.0238 13.0395 37.0003 12.8623 36.9378 12.6979C36.7555 12.2743 36.44 11.9233 36.0404 11.699C35.4646 11.365 34.8153 11.1821 34.1515 11.1676C34.4697 11.3952 34.776 11.6391 35.07 11.8978L35.071 11.8969ZM31.755 8.421L31.7953 8.40452C32.0744 8.28336 32.3483 8.15906 32.6284 8.03889C32.6913 8.00711 32.7601 7.97376 32.8318 7.939C32.873 7.91493 32.9165 7.89421 32.9604 7.87596C32.4779 7.34465 32.0309 6.78329 31.6436 6.27284C31.7344 6.98665 31.7715 7.70639 31.754 8.42585L31.755 8.421Z" fill="black"/>
</svg>
