<svg xmlns="http://www.w3.org/2000/svg" width="17.449" height="20.023" viewBox="0 0 17.449 20.023">
  <path id="restore" d="M18145.713,737.064a8.151,8.151,0,0,1-2.57-3.218c-.488-1.107.352-2.766,1.3-1.349s3.121,4.826,6.285,4.826a7.027,7.027,0,0,0,5.227-2.361,6.608,6.608,0,0,0,1.5-5.446c-.1-3.678-4.139-5.715-6.891-5.715a4.688,4.688,0,0,0-.588.036c-.5.073-1.541.611-2.383-.36s.906-1.568,1.7-1.668a7.092,7.092,0,0,1,1-.068,10.186,10.186,0,0,1,6.914,3,6.26,6.26,0,0,1,1.963,4.539,6.847,6.847,0,0,1-1.029,5.715,9.561,9.561,0,0,1-6.326,4,7.313,7.313,0,0,1-1,.073A7.7,7.7,0,0,1,18145.713,737.064Zm3.51-4.785a.875.875,0,0,1-.314-.46,7.054,7.054,0,0,1-.16-2.074c-.092-.88-.57-2.862.934-2.7,1.008.346.8,1.682.953,2.5.051.387.174.77.256,1.158,0,0,.008,0,.014-.014a4.511,4.511,0,0,1,1.563-1.1,1.014,1.014,0,0,1,1.227,1.395,4.444,4.444,0,0,1-1.326,1.372c-.475.419-.762,1.053-1.395,1.3a1.165,1.165,0,0,1-.516.128A1.293,1.293,0,0,1,18149.223,732.279Zm-4.066-5.519v.009a3.63,3.63,0,0,1-1.836-1.066l-.037-.041a1.1,1.1,0,0,1-.264-.5,1.045,1.045,0,0,1,.086-.67c.43-.816.529-1.682.963-2.493a4.1,4.1,0,0,1,1.932-1.941c.01,0,.014-.009.018-.009l.01,0a.535.535,0,0,1,.574.5,3.848,3.848,0,0,1-.1,1.481c-.141.593-.619,1.007-1.227,2,.061-.068-.045.1-.141.278-.1.159-.182.324-.146.314a10.7,10.7,0,0,1,3.063,1.509c.434.7-.172.893-.947.893A8.335,8.335,0,0,1,18145.156,726.76Z" transform="translate(-18142.465 -719.551)" fill="#060708" stroke="rgba(0,0,0,0)" stroke-width="1"/>
</svg>
