<svg xmlns="http://www.w3.org/2000/svg" xmlns:xlink="http://www.w3.org/1999/xlink" viewBox="30 17 40 67" version="1.1" x="0px" y="0px"><g stroke="none" stroke-width="1" fill="none" fill-rule="evenodd"><g fill="#000000"><path d="M42,31 L42,41 L42,41 C42,41.5522847 42.4477153,42 43,42 L57,42 L57,42 C57.5522847,42 58,41.5522847 58,41 L58,31 L58,31 C58,30.4477153 58.4477153,30 59,30 L60.7573593,30 L60.7573593,30 C61.5530088,30 62.3160705,30.3160705 62.8786797,30.8786797 L69.1213203,37.1213203 L69.1213203,37.1213203 C69.6839295,37.6839295 70,38.4469912 70,39.2426407 L70,67 L70,67 C70,68.6568542 68.6568542,70 67,70 L33,70 L33,70 C31.3431458,70 30,68.6568542 30,67 L30,33 L30,33 C30,31.3431458 31.3431458,30 33,30 L41,30 L41,30 C41.5522847,30 42,30.4477153 42,31 Z M51,30 L53,30 L53,30 C53.5522847,30 54,30.4477153 54,31 L54,37 L54,37 C54,37.5522847 53.5522847,38 53,38 L51,38 L51,38 C50.4477153,38 50,37.5522847 50,37 L50,31 L50,31 C50,30.4477153 50.4477153,30 51,30 Z M34,47 L34,65 L34,65 C34,65.5522847 34.4477153,66 35,66 L65,66 L65,66 C65.5522847,66 66,65.5522847 66,65 L66,47 L66,47 C66,46.4477153 65.5522847,46 65,46 L35,46 L35,46 C34.4477153,46 34,46.4477153 34,47 Z"/></g></g></svg>