<svg xmlns="http://www.w3.org/2000/svg" width="19.051" height="21.925" viewBox="0 0 19.051 21.925">
  <path id="spec" d="M10218.764,6884.481a3.265,3.265,0,0,1-.687-.29c-.109.078-.218.157-.324.236a2.016,2.016,0,0,1-.8.375,1.471,1.471,0,0,1-1.2-.334c-.272-.326-.465-.649-.706-.991-.187-.3-.47-.537-.675-.83l.046.069a1.408,1.408,0,0,1,.363-2.026c-.06-.128-.12-.257-.177-.386a1.363,1.363,0,0,1-.736-.291,1.3,1.3,0,0,1-.434-1.06v.056c.016-.561.028-1.121.061-1.682a1.142,1.142,0,0,1,.307-.824,1.111,1.111,0,0,1,.862-.339l-.107.005c.106,0,.271-.009.432-.016.124-.313.238-.63.346-.949-.035-.034-.053-.084-.11-.1.052-.057.019-.046-.013-.09l-.057-.059.064.074a1.339,1.339,0,0,1-.444-.965,1.323,1.323,0,0,1,.386-.942,16.788,16.788,0,0,1,1.279-1.25,1.335,1.335,0,0,1,1.025-.385,1.365,1.365,0,0,1,.9.509l.484-.306c.006-.123.011-.241.012-.309l0,.1a1.264,1.264,0,0,1,1.281-1.262h-.039c.588-.039,1.15-.167,1.756-.2a1.578,1.578,0,0,1,1.711,1.587c.1.054.2.113.295.175a1.434,1.434,0,0,1,1.036-.466,1.384,1.384,0,0,1,.968.478l-.054-.054c.555.742,1.489,1.127,1.877,2a1.293,1.293,0,0,1-.244,1.258c-.109.11-.231.24-.352.365.107.248.216.5.328.741l.108.006c1.4-.125,1.579,2.478.932,3.391a1.309,1.309,0,0,1-1.086.369,9.957,9.957,0,0,0-.5.928l.3.27a1.117,1.117,0,0,1,.034,1.819l-.9.814a5.736,5.736,0,0,1-1.071.847l.049-.023a1.287,1.287,0,0,1-1.675-.325l-.128.058a1.422,1.422,0,0,1-.374,1.174,1.452,1.452,0,0,1-1.063.4l-1.684.045a1.367,1.367,0,0,1-.16.009A1.463,1.463,0,0,1,10218.764,6884.481Zm3.109-.007,0-.029A.153.153,0,0,0,10221.873,6884.474Zm-1.612-.288.033,0h-.012Zm.318-.519c-.007.07-.029.32-.051.513l1.319,0-.023-.345c-.1-.909,1.193-1.027,1.82-1.325.465-.159.77.185.965.555l.114.193c.023-.012.046-.022.068-.031.472-.32,1.223-.986,1.7-1.326a.193.193,0,0,0-.059-.065l-.479-.581c-.4-.434.213-.878.361-1.289.229-.336.257-.97.734-1.027.073-.018.4-.054.552-.088,0,0,0-.011,0-.02a5.449,5.449,0,0,0-.068-1.625l-.494.023a.517.517,0,0,1-.478-.256c-.287-.488-.6-.96-.906-1.437-.3-.434.146-.834.362-1.161l.065-.094c-.4-.391-.737-.837-1.151-1.212l-.334.367-.03.033a.8.8,0,0,1-1.125.051,1.105,1.105,0,0,0-.965-.356.825.825,0,0,1-.809-.773c0-.093-.013-.25-.021-.384-.41-.021-.84-.077-1.263-.1l-.021.14c.014-.2-.018.18-.022.188a.7.7,0,0,1-.378.552l-1.409.711c-.548.321-.873-.152-1.182-.544a15.6,15.6,0,0,1-1.19,1.166l-.077.069c0-.021-.021-.052-.046-.046a.045.045,0,0,0-.046.054.985.985,0,0,1,.1.128c.033.036.013.062.079.026.006.066.113.162.149.226a.635.635,0,0,1,.192.7c-.229.539-.439,1.086-.619,1.646a.564.564,0,0,1-.539.375c-.145.026-.344.055-.514.084.032.43.057.859.079,1.289l.075-.013a.809.809,0,0,1,.942.643c.338.753,1.223,1.711.419,2.376l-.327.268a5.977,5.977,0,0,0,.627.941,1.325,1.325,0,0,1,.091.12c.48-.3,1.216-1.093,1.835-.549a1.775,1.775,0,0,0,1.2.411A.791.791,0,0,1,10220.579,6883.668Zm1.556.511h-.02Zm2.47-.839a.342.342,0,0,1,.045-.038C10224.6,6883.309,10224.574,6883.331,10224.6,6883.339Zm-7.685-.228a.328.328,0,0,0-.077-.032C10216.874,6883.113,10216.9,6883.13,10216.92,6883.112Zm-1.208-.913a.321.321,0,0,0,.083-.053Zm10.795-.187a.119.119,0,0,0,0-.08Zm-10.62-.35a.339.339,0,0,0-.036-.056Zm-.673-1.391.028,0Zm-.249-1.3v.057a.186.186,0,0,0,0-.062Zm12.659-.127c.027-.007.045-.015.048-.022h0A.145.145,0,0,0,10227.624,6878.843Zm-13-1.436a.149.149,0,0,0,.1,0Zm11.561-3.273.027-.039.033-.046A.192.192,0,0,0,10226.187,6874.134Zm-1.446-1.233,0,0-.055-.056A.149.149,0,0,0,10224.74,6872.9Zm-7.437-.039-.016-.02C10217.287,6872.852,10217.294,6872.858,10217.3,6872.862Zm4.318-1.134c0-.017-.008-.024-.008-.024A.089.089,0,0,0,10221.622,6871.728Zm-1.182-.146-.006.039a.454.454,0,0,0,.014-.139Zm-9.214,11.365c-.339-.339-.785-.642-.906-1.14a1.882,1.882,0,0,1-.063-.7c.079-2.072-.224-4.162-.288-6.233-.043-1.106-.046-2.31-.115-3.406a9.735,9.735,0,0,0-.044-1.987,4.865,4.865,0,0,0-.038-1.417l0-.57a3.217,3.217,0,0,1,1.718-2.914,7.663,7.663,0,0,1,3.663-.3c1.877-.192,3.779.049,5.661-.254a7.147,7.147,0,0,1,2.013.013,5.346,5.346,0,0,1,1.679.626,3.686,3.686,0,0,1,1.594,2.256c.033.714-.21,1.643-.223,2.382a.47.47,0,0,1-.94-.008c.008-.647-.092-1.348-.131-2a.374.374,0,0,0-.036-.159c-.09-.182-.189-.457-.344-.716a2.455,2.455,0,0,0-1.461-.878,4.4,4.4,0,0,1-1.019.1,19.385,19.385,0,0,1-2.046-.128,15.488,15.488,0,0,0-2.482-.113,11.135,11.135,0,0,1-2.265-.064,15.359,15.359,0,0,1-2.246.046,1.882,1.882,0,0,0-1.6,2.1l.019.565a4.88,4.88,0,0,0,.013,1.412,9.527,9.527,0,0,0,.028,1.974c-.039,1.091.015,2.292,0,3.389.013,1.877-.187,3.784-.093,5.656a2.974,2.974,0,0,0,.249,1.343.494.494,0,0,0,.29.282.887.887,0,0,1,.771.313.518.518,0,0,1-.021.937,1.193,1.193,0,0,1-.443.087A1,1,0,0,1,10211.227,6882.946Zm10.089-2.238-.033,0c-.043-.007-.09-.015-.136-.021a2.294,2.294,0,0,1-1.751-.837,3.074,3.074,0,0,1-.952-1.753,2.559,2.559,0,0,1,.7-2.054,2.521,2.521,0,0,1,1.972-.891,2.434,2.434,0,0,1,2.213,1.271,2.112,2.112,0,0,1,.55,1.389,3.233,3.233,0,0,1-.008.988,1.139,1.139,0,0,1-.274.585,2.693,2.693,0,0,1-.635.757,1.559,1.559,0,0,1-1.357.58C10221.509,6880.721,10221.416,6880.716,10221.315,6880.708Zm-.829-3.494a1.227,1.227,0,0,1-.133.172l-.047.057.008.075-.046.1a1.4,1.4,0,0,0-.054.891l0,.039a.467.467,0,0,0,.156.226.08.08,0,0,0,.023,0,.759.759,0,0,1,.287.118l.011.008a.645.645,0,0,0,.38.131.515.515,0,0,0,.265-.069,1.382,1.382,0,0,1,.6-.251l.008-.008a.909.909,0,0,1,.1-.1l.021-.018.021-.016c.033-.021.033-.021.06-.087a1.019,1.019,0,0,1,.146-.288.909.909,0,0,0,.146-.331c0-.028-.013-.059-.018-.092a3.131,3.131,0,0,0-.139-.567,1.366,1.366,0,0,0-.78-.344h-.033l-.031,0-.03,0a1.01,1.01,0,0,0-.1,0A1.237,1.237,0,0,0,10220.486,6877.214Zm-5.183-7.745a2.305,2.305,0,0,1-1.3.049c-.405-.092-1.176-.5-.644-.973a2.164,2.164,0,0,1,1.956-.228,4.77,4.77,0,0,0,.894-.083,3.978,3.978,0,0,1,1.063-.066c.437.046,2.041.387,1.3,1.078a2.626,2.626,0,0,1-1.46.39C10216.513,6869.636,10215.911,6869.509,10215.3,6869.469Z" transform="translate(-10209.764 -6863.962)"/>
</svg>
