<svg xmlns="http://www.w3.org/2000/svg" width="34.012" height="32.31" viewBox="0 0 34.012 32.31">
  <g id="transaction" transform="translate(-301.935 -578.268)">
    <path id="Path_136717" data-name="Path 136717" d="M18165.605,3484.47a6.722,6.722,0,0,1-4.047-5.522c-.412-2.561,3.7-5.592,5.963-5.254s5.205,1.683,5.273,5.859c.057,3.422-3.246,5.171-5.721,5.171A3.936,3.936,0,0,1,18165.605,3484.47Zm-17.6-7.735c-2.867-1.258-4.469-3.948-4.973-7.359s4.549-7.449,7.328-7,6.406,2.243,6.488,7.806c.07,4.559-3.992,6.891-7.037,6.891A4.519,4.519,0,0,1,18148.01,3476.735Zm17.832-8.343c-2.465-1.081-3.844-3.4-4.281-6.336s3.918-6.413,6.311-6.026,5.514,1.93,5.586,6.722a5.98,5.98,0,0,1-6.062,5.932A3.9,3.9,0,0,1,18165.842,3468.392Z" transform="translate(-17839.291 -2875.147)" fill="rgba(249,175,0,0.5)"/>
    <path id="transaction-game" d="M775.713,341.176a7.9,7.9,0,0,1-2.035-4.19,5.905,5.905,0,0,1,1.034-4.592,10.668,10.668,0,0,1,.833-1.029,6.24,6.24,0,0,1,4.5-1.969,6.413,6.413,0,0,1,4.734,2.125,7.784,7.784,0,0,1,.019,9.706,6.122,6.122,0,0,1-4.52,2.03A6.21,6.21,0,0,1,775.713,341.176Zm1.332-8.236a6.614,6.614,0,0,0-1.352,3.479,4.484,4.484,0,0,0,4.272,4.925c.084,0,.169,0,.252-.009h.024a5.234,5.234,0,0,0,4.946-4.976,5.041,5.041,0,0,0-4.887-4.913A4.278,4.278,0,0,0,777.045,332.94Zm2.042,6.211a2.319,2.319,0,0,1-.607-1.245c-.008-.045-.016-.092-.023-.139a.773.773,0,0,1-.33-.187.842.842,0,0,1-.264-.549.721.721,0,0,1,.233-.606.79.79,0,0,1,.159-.109.773.773,0,0,1-.265-.549.752.752,0,0,1,.216-.594.775.775,0,0,1,.564-.223h.02c.044-.11.09-.213.138-.309a2.55,2.55,0,0,1,.9-1.03,2.338,2.338,0,0,1,1.278-.351,2.9,2.9,0,0,1,.569.058,3.209,3.209,0,0,1,.511.145,1.573,1.573,0,0,1,.408.215.922.922,0,0,1,.3.465.887.887,0,0,1-.087.709.721.721,0,0,1-.505.408.684.684,0,0,1-.126.012.749.749,0,0,1-.43-.142l-.019-.013a1.765,1.765,0,0,0-.284-.173.594.594,0,0,0-.28-.072.882.882,0,0,0-.441.106.793.793,0,0,1,.329.176.818.818,0,0,1,.276.543v.02a.75.75,0,0,1-.239.6.736.736,0,0,1-.159.113.775.775,0,0,1-.51,1.368h-.327l0,.006c.079.229.171.229.244.229a.813.813,0,0,0,.366-.075.87.87,0,0,0,.266-.207,1.1,1.1,0,0,0,.179-.282l0-.009a.811.811,0,0,1,.408-.429.632.632,0,0,1,.26-.056.712.712,0,0,1,.352.1.849.849,0,0,1,.411.521,1.044,1.044,0,0,1-.11.8,2.212,2.212,0,0,1-.481.608,2.433,2.433,0,0,1-1.661.628A1.7,1.7,0,0,1,779.087,339.151Zm-18.9-1.763a9.4,9.4,0,0,1-3.081-2.2,10.939,10.939,0,0,1-2.809-5.906,8.578,8.578,0,0,1,1.45-6.421,14.849,14.849,0,0,1,1.168-1.451l.006-.006a9.2,9.2,0,0,1,3.032-2.107,8.441,8.441,0,0,1,3.308-.671,9.006,9.006,0,0,1,6.613,2.951,9.2,9.2,0,0,1,1.838,3.01,10.093,10.093,0,0,1,.618,3.811,10.34,10.34,0,0,1-.614,3.851,9.1,9.1,0,0,1-1.827,3.011,8.653,8.653,0,0,1-6.352,2.832A8.338,8.338,0,0,1,760.189,337.388Zm-1.631-14.256a9.568,9.568,0,0,0-2.071,5.309,6.886,6.886,0,0,0,1.66,5.141,6.646,6.646,0,0,0,5.022,2.434c.107,0,.21,0,.308-.008h.019a7.828,7.828,0,0,0,7.466-7.611,7.563,7.563,0,0,0-7.408-7.543h0A6.634,6.634,0,0,0,758.558,323.131Zm2.495,10.267a.965.965,0,0,1-.788-.294.864.864,0,0,1-.192-.693,1.084,1.084,0,0,1,.167-.473,4.61,4.61,0,0,1,.41-.527c.138-.155.288-.328.445-.515a4.852,4.852,0,0,0,.423-.594,3.921,3.921,0,0,0,.333-.706h-.15a1.127,1.127,0,0,1-.765-.265.987.987,0,0,1-.339-.764,1.061,1.061,0,0,1,.271-.737.987.987,0,0,1,.766-.305h.061q-.091-.138-.195-.3a5.547,5.547,0,0,1-.456-.9,2.691,2.691,0,0,1-.207-.994,1.769,1.769,0,0,1,.3-1.017,2.66,2.66,0,0,1,.791-.726,2.193,2.193,0,0,1,.684-.291,3.13,3.13,0,0,1,.712-.082,3.832,3.832,0,0,1,1.462.294,3.681,3.681,0,0,1,1.183.747,1.124,1.124,0,0,1,.4.826,1.208,1.208,0,0,1-.235.688.965.965,0,0,1-.693.388.914.914,0,0,1-.132.01,1.139,1.139,0,0,1-.783-.348,1.934,1.934,0,0,0-.615-.372,1.891,1.891,0,0,0-.665-.138.788.788,0,0,0-.2.025c-.024.006-.047.013-.068.021a1.228,1.228,0,0,0,.138.365,9.461,9.461,0,0,0,.564.9,2.155,2.155,0,0,1,.31.747c.011.05.022.1.032.152h.447a1.125,1.125,0,0,1,.784.277,1.007,1.007,0,0,1,.333.765,1.039,1.039,0,0,1-.275.735,1.018,1.018,0,0,1-.773.294h-.522c-.023.125-.052.243-.083.352a6.406,6.406,0,0,1-.518,1.245l-.067.122H764.4a1.05,1.05,0,0,1,.795.318,1.17,1.17,0,0,1,.32.708.933.933,0,0,1-.312.817,1.1,1.1,0,0,1-.724.241Zm16.019-5.258a8.608,8.608,0,0,1-2.823-2.018,10.025,10.025,0,0,1-2.573-5.41,7.863,7.863,0,0,1,1.331-5.887,13.343,13.343,0,0,1,1.069-1.327l0-.005a8.431,8.431,0,0,1,2.78-1.932,7.747,7.747,0,0,1,3.031-.615,8.251,8.251,0,0,1,6.06,2.7,8.436,8.436,0,0,1,1.684,2.758,9.251,9.251,0,0,1,.566,3.491,9.479,9.479,0,0,1-.563,3.528,8.331,8.331,0,0,1-1.675,2.76,7.93,7.93,0,0,1-5.822,2.6A7.638,7.638,0,0,1,777.072,328.14Zm-1.449-13.019a8.7,8.7,0,0,0-1.88,4.824,6.246,6.246,0,0,0,1.506,4.662,6.032,6.032,0,0,0,4.556,2.209c.094,0,.188,0,.28-.007h.019a7.1,7.1,0,0,0,6.777-6.907,6.863,6.863,0,0,0-6.724-6.845A6.022,6.022,0,0,0,775.623,315.121Zm3.176,9.8a.932.932,0,0,1-.286-.675h-.806a.99.99,0,0,1-.726-.286,1.066,1.066,0,0,1-.315-.677.935.935,0,0,1,.276-.753.948.948,0,0,1,.694-.286H778.7l.159-1.586-.4-.242a3.588,3.588,0,0,1-.854-.7,1.882,1.882,0,0,1-.45-1.116,1.846,1.846,0,0,1,.429-1.35,2.823,2.823,0,0,1,1.193-.817,3.927,3.927,0,0,1,.522-.158l.021-.21a.968.968,0,0,1,.373-.724,1.006,1.006,0,0,1,.607-.216.929.929,0,0,1,.69.313,1.024,1.024,0,0,1,.266.721h.647a1.01,1.01,0,0,1,1.041.972.973.973,0,0,1-.228.72.872.872,0,0,1-.683.311h-.97l-.146,1.454.3.183a3.074,3.074,0,0,1,.826.719,2.383,2.383,0,0,1,.193,2.382,2.061,2.061,0,0,1-.724.758,3.411,3.411,0,0,1-.917.392l-.128.032-.022.225a.993.993,0,0,1-.364.683.978.978,0,0,1-.615.222A.956.956,0,0,1,778.8,324.924Z" transform="translate(-452.258 267.321)"/>
  </g>
</svg>
