<svg xmlns="http://www.w3.org/2000/svg" width="18.029" height="16.313" viewBox="0 0 18.029 16.313">
  <path id="upload" d="M18156.3,736.278c-.6-.014-1.2-.036-1.787-.027-2.721-.1-6.053.036-8.76-.191-.355-.046-.68-.059-1.066-.141-1.568-.242-1.873-2.115-1.6-3.391a2.959,2.959,0,0,1,.141-.857c.041-.059.1-.119.068-.178-.018-.119.041-.232.023-.346,0-.228-.137-.46-.01-.688a.963.963,0,0,1,1.674,0c.127.228-.01.456,0,.684-.027.114.037.228.018.342-.018.055.027.114.068.164a2.935,2.935,0,0,1,.174.866c.064.387.127.8.16,1.171.059.014.117.023.168.032a36.6,36.6,0,0,0,5.119.251l3.818.036a38.672,38.672,0,0,0,4.07-.346.213.213,0,0,0,.191-.214l-.01-.141a12,12,0,0,1,.164-2.27c.092-.761.16-1.522.191-2.279a.839.839,0,0,1,1.678.023c-.037,1.477.314,3.031.211,4.512a2.935,2.935,0,0,1-.6,2.069,2.536,2.536,0,0,1-2.061.953c-.178,0-.352,0-.523,0C18157.318,736.315,18156.809,736.3,18156.3,736.278Zm-11.107-2.634a.014.014,0,0,0,.01,0,.126.126,0,0,0-.041-.018C18145.154,733.63,18145.168,733.639,18145.2,733.644Zm6.764-1.609c-.643-.337-.715-1.089-.8-1.7a20.807,20.807,0,0,1-.092-2.256c.023-1.026-.387-2.52,1.066-2.671h.078c.691,0,1.5.6,1.129,1.951l-.1.228c-.254,1.1.605,4.542-.828,4.542A1.364,1.364,0,0,1,18151.959,732.035Zm-5.7-5.264a1.262,1.262,0,0,1,.027-1.568l0-.009c.238-.255.553-.656.885-1.076a14.67,14.67,0,0,1,2.311-2.534c.15-.1.3-.191.455-.283a3.877,3.877,0,0,0,.953-.716,1.791,1.791,0,0,1,1.3-.583,1.345,1.345,0,0,1,.32.036l.014,0c2.328.77,3.613,2.858,4.566,4.795l0,.009a1.178,1.178,0,0,1-.086,1.121,1.267,1.267,0,0,1-1.053.588,1.156,1.156,0,0,1-.717-.251,15.325,15.325,0,0,1-3.145-2.985c-.027.036-.045.068-.068.1a6.026,6.026,0,0,1-1.5,1.623l-2.521,1.955a1.246,1.246,0,0,1-1.75-.228Z" transform="translate(-18143.002 -720.002)" fill="#040405"/>
</svg>
