<svg xmlns="http://www.w3.org/2000/svg" width="16.037" height="15.074" viewBox="0 0 16.037 15.074">
  <path id="zomm-in" d="M18159.123,737.088a7.36,7.36,0,0,1-1.982-1.319c-1.031-1.009-.244-2.165,1-1.545,1.008.589,1.25.452,1.875,1.188.824,1.06.24,1.812-.42,1.812A.9.9,0,0,1,18159.123,737.088Zm-11.953-2.406c-4.795-3.72-3.145-11.691,2.926-12.474,3.553-.515,8.223,2.491,8.082,6.111,1.094,4.1-2.687,7.488-6.021,7.95a5.9,5.9,0,0,1-.809.055A6.3,6.3,0,0,1,18147.17,734.681Zm3.488-10.814c-1.963.273-5.094,1.524-4.785,5.228.953,9.064,11.965,6.437,10.908-.583-.086-3.169-3.57-4.675-5.643-4.676A3.518,3.518,0,0,0,18150.658,723.868Zm-.3,8.118a6.406,6.406,0,0,1,.031-1.913,6.957,6.957,0,0,1-1.779.053.942.942,0,0,1-.078-1.876,7.7,7.7,0,0,1,1.967-.079,8.324,8.324,0,0,1,.209-2.27.858.858,0,0,1,1.662.032,8.183,8.183,0,0,1,.125,2.223,1.011,1.011,0,0,0,.133-.01c1.23-.089,2.834-.179,2.73.935a.784.784,0,0,1-.594.6,9.617,9.617,0,0,1-2.25.236,7.362,7.362,0,0,1-.031,2.112,1.08,1.08,0,0,1-2.125-.042Z" transform="translate(-18144.381 -722.15)"/>
</svg>
