<svg xmlns="http://www.w3.org/2000/svg" width="10.99" height="7.856" viewBox="0 0 10.99 7.856">
  <path id="arrow-down" d="M1.065.793a12.157,12.157,0,0,1,3.961,3.79c.033.111.41.511.2.445a1.031,1.031,0,0,0-.983.243C5.917,3.19,7.209.717,9.958.032A.835.835,0,0,1,10.99.679,6.706,6.706,0,0,1,9.109,4.6c-.967,1.08-2.187,1.689-3.16,2.76a1.612,1.612,0,0,1-.939.48,1.682,1.682,0,0,1-.861-.131A5.609,5.609,0,0,1,1.6,5.478C.979,4.592-1.331.255,1.065.793" transform="translate(0 0)" fill="rgba(0,0,0,0.7)"/>
</svg>
