<svg xmlns="http://www.w3.org/2000/svg" width="18.656" height="14.165" viewBox="0 0 18.656 14.165">
  <path id="back-cancel" d="M3.78,11.16C2.527,10.01,1.816,8.555.575,7.4a1.959,1.959,0,0,1-.562-1.12A2.089,2.089,0,0,1,.157,5.247,6.647,6.647,0,0,1,2.7,2.173c1.011-.753,5.978-3.562,5.383-.687C6.973,3.457,5.4,4.424,3.739,5.99c-.132.04,1.126,1.031.867.868,2.411,1.99,3.629,1.989,4.443,5.276a1,1,0,0,1-.7,1.234l-.036.009A7.6,7.6,0,0,1,3.78,11.16ZM6.117,7.246A.738.738,0,0,1,6.06,5.858c2.767-1.217,2.99-.693,5.877-.6.864.027,4.117-.645,5.031,0s1.192,2.6-1.073,2.314c-2.314.175-3.225.325-5.517.325A12.951,12.951,0,0,1,6.117,7.246Z" transform="translate(0.501 0.281)" fill="#040405" stroke="rgba(0,0,0,0)" stroke-width="1"/>
</svg>
