<svg xmlns="http://www.w3.org/2000/svg" width="12.364" height="12.037" viewBox="0 0 12.364 12.037">
  <g id="close" transform="translate(0 0)">
    <path id="Path_136210" data-name="Path 136210" d="M6200.075,6967.006a9.819,9.819,0,0,1-5.529-3.814,12.506,12.506,0,0,1-.777,1.12c-1.038,1.145-4.86,2.546-4.767-.158a4.815,4.815,0,0,1,2.708-3.617,4.556,4.556,0,0,1-1.674-1.679c-.663-.94-1.536-3.243.462-3.213a5.808,5.808,0,0,1,3.92,2.406,8.4,8.4,0,0,1,1.752-1.717c6.413-3.89,5.829,1.685,1.612,4.566l-.068.055a8.856,8.856,0,0,1,3.6,4.717,1.06,1.06,0,0,1-1,1.365A.976.976,0,0,1,6200.075,6967.006Z" transform="translate(-6189 -6955)"/>
  </g>
</svg>
