<svg xmlns="http://www.w3.org/2000/svg" width="14.123" height="13.91" viewBox="0 0 14.123 13.91">
  <path id="edit" d="M14405.586,5916.588c.091-.756.228-1.5.365-2.251a9.346,9.346,0,0,1,.333-1.451,1.47,1.47,0,0,1,.358-.456c2.088-1.939,4.277-3.778,6.174-5.917.127-.13.76-.814.883-.941.017-.017.034-.034.052-.05a1.3,1.3,0,0,1,.285-.388l.275-.289a2.669,2.669,0,0,1,4.22.213l.083-.083a2.657,2.657,0,0,1,.079,4.234l-.311.25-.046.044a1.255,1.255,0,0,1-.251.391,80.512,80.512,0,0,1-7.915,6.97c-.789.224-2.389.742-3.174.937a1.03,1.03,0,0,1-.23.026A1.207,1.207,0,0,1,14405.586,5916.588Zm1.129-.4.089-.013A.43.43,0,0,0,14406.715,5916.187Zm.77-.108c.555-.076,1.221-.166,1.768-.237-.319-.41-.408-.964-.728-1.4-.158-.219-.328-.423-.48-.633C14407.877,5914.571,14407.688,5915.326,14407.484,5916.079Zm3.038-1.752a2.073,2.073,0,0,1,.3.4c1.365-1.637,2.806-3.212,4.286-4.738.319-.32.7-.706,1.046-1.04l-.1-.1c-.536-.5-1.142-.93-1.688-1.42-1.109,1-2.241,2-3.256,3.092-.678.693-1.328,1.417-1.989,2.129C14409.583,5913.2,14409.86,5913.926,14410.522,5914.327Zm-2.6-.42a.283.283,0,0,0,.037-.037Zm9.685-6.315a1.7,1.7,0,0,0,.206-1.813l.083-.083a1.715,1.715,0,0,0-1.9.332C14416.53,5906.54,14417.075,5907.081,14417.6,5907.592Z" transform="translate(-14405.584 -5903.917)" fill="#040405"/>
</svg>
