<svg xmlns="http://www.w3.org/2000/svg" width="30" height="30" viewBox="0 0 30 30">
  <g id="existing-obj" transform="translate(0)">
    <rect id="menu-item-back" width="30" height="30" rx="2" transform="translate(0 0)" fill="#fff"/>
    <path id="existing-obj-2" data-name="existing-obj" d="M718.782,346.744a1.356,1.356,0,0,1-1.356-1.355V318.282a1.356,1.356,0,0,1,1.356-1.356h27.108a1.355,1.355,0,0,1,1.355,1.356v27.107a1.355,1.355,0,0,1-1.355,1.355Zm-.678-1.355a.678.678,0,0,0,.678.678h27.108a.678.678,0,0,0,.678-.678V328.15H718.1Zm28.463-17.917v-9.19a.679.679,0,0,0-.678-.678H718.782a.679.679,0,0,0-.678.678v9.19Zm-21.3,14.49a1.214,1.214,0,0,1-.681-.676,1.377,1.377,0,0,1-.1-.534,1.407,1.407,0,0,1,.09-.507,1.266,1.266,0,0,1,.254-.415,1.228,1.228,0,0,1,.387-.282,1.148,1.148,0,0,1,.493-.1,1.192,1.192,0,0,1,.524.109,1.076,1.076,0,0,1,.375.294,1.275,1.275,0,0,1,.226.432,1.753,1.753,0,0,1,.076.517c0,.025,0,.051,0,.076s0,.052-.007.081H725.06a.753.753,0,0,0,.247.471.71.71,0,0,0,.474.164.84.84,0,0,0,.37-.076,1.215,1.215,0,0,0,.309-.223l.337.3a1.39,1.39,0,0,1-.429.342,1.287,1.287,0,0,1-.6.128A1.334,1.334,0,0,1,725.267,341.962Zm0-1.866a.827.827,0,0,0-.211.476h1.286a.972.972,0,0,0-.062-.259.667.667,0,0,0-.128-.209.6.6,0,0,0-.192-.14.594.594,0,0,0-.254-.052A.58.58,0,0,0,725.267,340.1ZM723.233,342a.6.6,0,0,1-.232-.124.551.551,0,0,1-.151-.226,1.01,1.01,0,0,1-.052-.349v-1.322h-.318V339.5h.318v-.688h.579v.688h.673v.489h-.673v1.232a.311.311,0,0,0,.081.24.325.325,0,0,0,.228.074.781.781,0,0,0,.356-.085v.47a.972.972,0,0,1-.232.1,1.114,1.114,0,0,1-.285.033A1.047,1.047,0,0,1,723.233,342Zm10.058,0v-.459l1.144-.971q.171-.142.289-.258a1.59,1.59,0,0,0,.192-.22.777.777,0,0,0,.107-.2.654.654,0,0,0,.034-.213.479.479,0,0,0-.154-.381.557.557,0,0,0-.382-.135.672.672,0,0,0-.4.123,1.849,1.849,0,0,0-.368.375l-.413-.323a2.982,2.982,0,0,1,.242-.3,1.3,1.3,0,0,1,.268-.22,1.253,1.253,0,0,1,.318-.136,1.468,1.468,0,0,1,.4-.048,1.356,1.356,0,0,1,.451.071.972.972,0,0,1,.346.2.922.922,0,0,1,.22.316,1.012,1.012,0,0,1,.079.406,1.055,1.055,0,0,1-.211.659,2.118,2.118,0,0,1-.271.3q-.164.152-.382.332l-.683.569h1.58V342Zm-2.566,0v-1.419a.683.683,0,0,0-.132-.454.461.461,0,0,0-.373-.156.5.5,0,0,0-.385.158.654.654,0,0,0-.149.462V342h-.578v-1.424a.678.678,0,0,0-.132-.449.462.462,0,0,0-.373-.156.492.492,0,0,0-.387.165.67.67,0,0,0-.146.459V342h-.579v-2.5h.579v.383a1.657,1.657,0,0,1,.133-.162.942.942,0,0,1,.163-.139.786.786,0,0,1,.209-.1.878.878,0,0,1,.259-.036.823.823,0,0,1,.457.122.809.809,0,0,1,.287.323,1.237,1.237,0,0,1,.359-.323.949.949,0,0,1,.491-.122.838.838,0,0,1,.645.249,1,1,0,0,1,.233.709V342Zm-9.45,0v-3.32h.579V342Zm3.992-6.815a1.214,1.214,0,0,1-.681-.676,1.377,1.377,0,0,1-.1-.534,1.407,1.407,0,0,1,.09-.507,1.259,1.259,0,0,1,.254-.415,1.229,1.229,0,0,1,.387-.282,1.148,1.148,0,0,1,.493-.1,1.191,1.191,0,0,1,.524.109,1.077,1.077,0,0,1,.375.294,1.27,1.27,0,0,1,.226.432,1.753,1.753,0,0,1,.076.517c0,.025,0,.051,0,.076s0,.052-.007.08H725.06a.756.756,0,0,0,.247.472.709.709,0,0,0,.474.164.839.839,0,0,0,.37-.076,1.216,1.216,0,0,0,.309-.223l.337.3a1.388,1.388,0,0,1-.429.342,1.287,1.287,0,0,1-.6.128A1.334,1.334,0,0,1,725.267,335.186Zm0-1.866a.827.827,0,0,0-.211.476h1.286a.971.971,0,0,0-.062-.259.667.667,0,0,0-.128-.209.6.6,0,0,0-.192-.14.594.594,0,0,0-.254-.052A.58.58,0,0,0,725.267,333.319Zm-2.033,1.909A.6.6,0,0,1,723,335.1a.551.551,0,0,1-.151-.226,1.01,1.01,0,0,1-.052-.35v-1.322h-.318v-.489h.318v-.688h.579v.688h.673v.489h-.673v1.232a.312.312,0,0,0,.081.24.325.325,0,0,0,.228.074.782.782,0,0,0,.356-.085v.47a.973.973,0,0,1-.232.1,1.111,1.111,0,0,1-.285.033A1.048,1.048,0,0,1,723.233,335.228Zm10.67,0v-2.751l-.6.166-.123-.474.892-.285h.408v3.344Zm-3.178,0V333.8a.684.684,0,0,0-.132-.454.463.463,0,0,0-.373-.156.5.5,0,0,0-.385.159.654.654,0,0,0-.149.462v1.41h-.578V333.8a.681.681,0,0,0-.132-.45.464.464,0,0,0-.373-.156.492.492,0,0,0-.387.166.67.67,0,0,0-.146.459v1.405h-.579v-2.5h.579v.383a1.729,1.729,0,0,1,.133-.163.963.963,0,0,1,.163-.139.783.783,0,0,1,.209-.1.877.877,0,0,1,.259-.036.823.823,0,0,1,.457.122.81.81,0,0,1,.287.323,1.238,1.238,0,0,1,.359-.323.95.95,0,0,1,.491-.122.84.84,0,0,1,.645.249,1,1,0,0,1,.233.709v1.6Zm-9.45,0V331.9h.579v3.32Zm13.308-9.29-.149-.019v-.526a1.11,1.11,0,0,0,.184.017.317.317,0,0,0,.225-.079.357.357,0,0,0,.084-.268V322.2h.661v2.9a.845.845,0,0,1-.216.642.878.878,0,0,1-.625.2A1.5,1.5,0,0,1,734.583,325.934Zm-6.85-.965a1.885,1.885,0,0,1-1.03-1.044,2.04,2.04,0,0,1,0-1.518,1.908,1.908,0,0,1,.412-.626,1.974,1.974,0,0,1,.629-.425,2,2,0,0,1,.8-.157,2.028,2.028,0,0,1,.8.154,1.885,1.885,0,0,1,1.03,1.044,2.041,2.041,0,0,1,0,1.518,1.907,1.907,0,0,1-.412.626,1.986,1.986,0,0,1-.629.426,2.007,2.007,0,0,1-.8.157A2.029,2.029,0,0,1,727.733,324.969Zm.285-3.052a1.213,1.213,0,0,0-.4.287,1.306,1.306,0,0,0-.263.428,1.484,1.484,0,0,0,0,1.046,1.312,1.312,0,0,0,.265.431,1.255,1.255,0,0,0,.409.293,1.263,1.263,0,0,0,1.443-.285,1.326,1.326,0,0,0,.263-.428,1.493,1.493,0,0,0,0-1.046,1.324,1.324,0,0,0-.266-.431,1.29,1.29,0,0,0-1.447-.3Zm4.28,3.05a1.5,1.5,0,0,1-.385-.353l0,.445h-.661V321.1h.661v1.572a1.435,1.435,0,0,1,.39-.382,1.022,1.022,0,0,1,.579-.155,1.281,1.281,0,0,1,.492.1,1.24,1.24,0,0,1,.425.29,1.46,1.46,0,0,1,.3.469,1.659,1.659,0,0,1,.114.634,1.684,1.684,0,0,1-.111.634,1.426,1.426,0,0,1-.3.469,1.234,1.234,0,0,1-.428.29,1.308,1.308,0,0,1-.5.1A1.055,1.055,0,0,1,732.3,324.966Zm.119-2.2a.773.773,0,0,0-.265.187.929.929,0,0,0-.182.29,1.1,1.1,0,0,0,0,.759.929.929,0,0,0,.182.29.775.775,0,0,0,.265.187.8.8,0,0,0,.32.065.777.777,0,0,0,.317-.065.765.765,0,0,0,.26-.184.872.872,0,0,0,.176-.29,1.153,1.153,0,0,0,0-.765.872.872,0,0,0-.176-.29.764.764,0,0,0-.26-.184.776.776,0,0,0-.317-.065A.8.8,0,0,0,732.417,322.771Zm-10.423,1.683a3.656,3.656,0,0,1,.016-1.051,3.684,3.684,0,0,1-.956.029.519.519,0,0,1-.041-1.031,4.027,4.027,0,0,1,1.055-.045,4.737,4.737,0,0,1,.114-1.247.458.458,0,0,1,.892.018,4.7,4.7,0,0,1,.068,1.222l.073-.005c.656-.049,1.52-.1,1.464.514a.424.424,0,0,1-.319.328,5.058,5.058,0,0,1-1.209.132,4.034,4.034,0,0,1-.015,1.159.577.577,0,0,1-1.14-.021Zm12.906-2.7v-.623h.71v.623Z" transform="translate(-717.426 -316.926)"/>
  </g>
</svg>
