<svg xmlns="http://www.w3.org/2000/svg" width="17.924" height="4.236" viewBox="0 0 17.924 4.236">
  <path id="more" d="M-14640.834,7209.955a1.962,1.962,0,0,1-1.484-2.438c.2-.5.715-.663,1.141-.879a1.953,1.953,0,0,1,3.008,2.222c-.242.839-.859,1.135-1.916,1.135C-14640.312,7209.994-14640.562,7209.98-14640.834,7209.955Zm-6.721-.006a2.219,2.219,0,0,1-1.684-2.77c.221-.579.809-.753,1.291-1a2.216,2.216,0,0,1,3.416,2.521c-.273.959-.973,1.292-2.178,1.292C-14646.967,7209.993-14647.25,7209.979-14647.555,7209.949Zm-8.117-.662c-.713-.812-.141-2.191.473-2.682.193-1.031,2.043-.715,2.664.217.328.442.758.457.709.927a2.309,2.309,0,0,1-2.3,2.244A2.059,2.059,0,0,1-14655.672,7209.287Z" transform="translate(14656.003 -7205.758)"/>
</svg>
