<svg xmlns="http://www.w3.org/2000/svg" width="30" height="30" viewBox="0 0 30 30">
  <g id="object" transform="translate(0.591 0.594)">
    <rect id="menu-item-back" width="30" height="30" rx="3" transform="translate(-0.591 -0.594)" fill="#fff"/>
    <path id="object-2" data-name="object" d="M964.764,345.942a1.318,1.318,0,0,1-1.318-1.318V318.265a1.318,1.318,0,0,1,1.318-1.318h26.36a1.318,1.318,0,0,1,1.318,1.318v26.359a1.318,1.318,0,0,1-1.318,1.318Zm-.659-1.318a.66.66,0,0,0,.659.659h26.36a.66.66,0,0,0,.659-.659V327.857H964.105ZM991.784,327.2v-8.933a.66.66,0,0,0-.659-.659h-26.36a.66.66,0,0,0-.659.659V327.2ZM971.73,341.292a1.182,1.182,0,0,1-.4-.258,1.207,1.207,0,0,1-.265-.4,1.339,1.339,0,0,1-.1-.519,1.384,1.384,0,0,1,.087-.493,1.256,1.256,0,0,1,.247-.4,1.193,1.193,0,0,1,.375-.274,1.112,1.112,0,0,1,.48-.1,1.16,1.16,0,0,1,.51.106,1.048,1.048,0,0,1,.364.286,1.234,1.234,0,0,1,.219.419,1.7,1.7,0,0,1,.074.5c0,.025,0,.049,0,.074s0,.05-.007.078h-1.79a.737.737,0,0,0,.24.459.692.692,0,0,0,.461.159.826.826,0,0,0,.36-.074,1.171,1.171,0,0,0,.3-.217l.327.291a1.35,1.35,0,0,1-.417.332,1.254,1.254,0,0,1-.58.125A1.3,1.3,0,0,1,971.73,341.292Zm0-1.815a.8.8,0,0,0-.205.464h1.25a.974.974,0,0,0-.06-.251.642.642,0,0,0-.125-.2.6.6,0,0,0-.187-.136.578.578,0,0,0-.247-.051A.562.562,0,0,0,971.73,339.477Zm-1.978,1.856a.576.576,0,0,1-.225-.12.538.538,0,0,1-.147-.22.981.981,0,0,1-.051-.34v-1.285h-.309v-.475h.309v-.669h.563v.669h.655v.475h-.655v1.2a.3.3,0,0,0,.078.234.317.317,0,0,0,.221.072.769.769,0,0,0,.346-.083v.457a.984.984,0,0,1-.226.092,1.072,1.072,0,0,1-.277.033A1.023,1.023,0,0,1,969.752,341.333Zm9.781,0v-.447l1.112-.944q.166-.139.281-.251a1.517,1.517,0,0,0,.187-.214.764.764,0,0,0,.1-.2.657.657,0,0,0,.033-.208.468.468,0,0,0-.15-.371.545.545,0,0,0-.371-.131.657.657,0,0,0-.39.12,1.8,1.8,0,0,0-.357.364l-.4-.313a2.729,2.729,0,0,1,.235-.289,1.232,1.232,0,0,1,.26-.214,1.2,1.2,0,0,1,.309-.133,1.458,1.458,0,0,1,.386-.047,1.325,1.325,0,0,1,.438.069.932.932,0,0,1,.336.2.9.9,0,0,1,.215.307.984.984,0,0,1,.076.394,1.013,1.013,0,0,1-.205.641,1.985,1.985,0,0,1-.263.291q-.159.148-.371.323l-.664.554h1.536v.5Zm-2.5,0v-1.381a.67.67,0,0,0-.128-.442.45.45,0,0,0-.363-.152.489.489,0,0,0-.374.154.63.63,0,0,0-.145.448v1.372h-.563v-1.385a.657.657,0,0,0-.129-.437.448.448,0,0,0-.362-.152.478.478,0,0,0-.376.161.651.651,0,0,0-.142.447v1.367h-.563v-2.436h.563v.373a1.51,1.51,0,0,1,.129-.158.877.877,0,0,1,.159-.135.777.777,0,0,1,.2-.1.852.852,0,0,1,.251-.035.792.792,0,0,1,.445.119.783.783,0,0,1,.279.314,1.2,1.2,0,0,1,.348-.314.919.919,0,0,1,.478-.119.817.817,0,0,1,.627.243.973.973,0,0,1,.226.69v1.554Zm-9.189,0V338.1h.563v3.229Zm3.882-6.627a1.19,1.19,0,0,1-.4-.258,1.206,1.206,0,0,1-.265-.4,1.341,1.341,0,0,1-.1-.519,1.382,1.382,0,0,1,.087-.493,1.249,1.249,0,0,1,.247-.4,1.2,1.2,0,0,1,.375-.275,1.121,1.121,0,0,1,.48-.1,1.161,1.161,0,0,1,.51.106,1.046,1.046,0,0,1,.364.286,1.241,1.241,0,0,1,.219.42,1.7,1.7,0,0,1,.074.5c0,.024,0,.049,0,.074s0,.051-.007.079h-1.79a.737.737,0,0,0,.24.459.7.7,0,0,0,.461.159.818.818,0,0,0,.36-.074,1.167,1.167,0,0,0,.3-.216l.327.291a1.35,1.35,0,0,1-.417.332,1.254,1.254,0,0,1-.58.125A1.3,1.3,0,0,1,971.73,334.7Zm0-1.815a.8.8,0,0,0-.205.463h1.25a.975.975,0,0,0-.06-.251.641.641,0,0,0-.125-.2.594.594,0,0,0-.187-.136.578.578,0,0,0-.247-.051A.562.562,0,0,0,971.73,332.887Zm-1.978,1.856a.57.57,0,0,1-.225-.12.535.535,0,0,1-.147-.219.981.981,0,0,1-.051-.34v-1.285h-.309V332.3h.309v-.669h.563v.669h.655v.475h-.655v1.2a.3.3,0,0,0,.078.234.317.317,0,0,0,.221.072.769.769,0,0,0,.346-.083v.457a.987.987,0,0,1-.226.092,1.075,1.075,0,0,1-.277.033A1.023,1.023,0,0,1,969.752,334.743Zm10.376,0v-2.676l-.581.162-.12-.461.868-.277h.4v3.253Zm-3.091,0v-1.381a.669.669,0,0,0-.128-.442.45.45,0,0,0-.363-.152.489.489,0,0,0-.374.154.63.63,0,0,0-.145.448v1.372h-.563v-1.385a.656.656,0,0,0-.129-.437.448.448,0,0,0-.362-.152.478.478,0,0,0-.376.161.651.651,0,0,0-.142.447v1.367h-.563V332.3h.563v.373a1.455,1.455,0,0,1,.129-.158.881.881,0,0,1,.159-.135.758.758,0,0,1,.2-.1.851.851,0,0,1,.251-.035.8.8,0,0,1,.445.119.786.786,0,0,1,.279.314,1.207,1.207,0,0,1,.348-.314.924.924,0,0,1,.478-.119.815.815,0,0,1,.627.243.972.972,0,0,1,.226.689v1.555Zm-9.189,0V331.51h.563v3.229Zm10.1-9.927a1.346,1.346,0,0,1-.757-.751,1.536,1.536,0,0,1-.11-.593,1.582,1.582,0,0,1,.1-.564,1.428,1.428,0,0,1,.282-.461,1.371,1.371,0,0,1,.429-.314,1.282,1.282,0,0,1,.549-.116,1.323,1.323,0,0,1,.582.121,1.189,1.189,0,0,1,.416.327,1.416,1.416,0,0,1,.251.48,1.957,1.957,0,0,1,.084.575c0,.028,0,.056,0,.084s0,.058-.008.09h-2.046a.84.84,0,0,0,.274.525.794.794,0,0,0,.527.182.934.934,0,0,0,.412-.085,1.345,1.345,0,0,0,.342-.247l.374.332a1.548,1.548,0,0,1-.477.38,1.433,1.433,0,0,1-.662.142A1.489,1.489,0,0,1,977.953,324.812Zm0-2.075a.916.916,0,0,0-.235.53h1.429a1.09,1.09,0,0,0-.068-.287.748.748,0,0,0-.142-.232.674.674,0,0,0-.214-.155.653.653,0,0,0-.282-.058A.643.643,0,0,0,977.953,322.738Zm4.958,2.138-.622-1.9-.627,1.9h-.569l-.9-2.8h.654l.559,1.908.617-1.919h.543l.622,1.919.57-1.908h.638l-.912,2.8Zm-7.09-.021-2.031-2.626v2.626h-.643v-3.69h.6l1.973,2.551v-2.551h.643v3.69Zm-7.942-.594a3.553,3.553,0,0,1,.016-1.022,3.6,3.6,0,0,1-.931.028.505.505,0,0,1-.041-1,3.871,3.871,0,0,1,1.027-.043,4.64,4.64,0,0,1,.111-1.215.446.446,0,0,1,.868.017,4.589,4.589,0,0,1,.066,1.19l.071-.005c.639-.048,1.479-.1,1.424.5a.413.413,0,0,1-.311.319,4.891,4.891,0,0,1-1.177.128,3.931,3.931,0,0,1-.015,1.129.562.562,0,0,1-1.11-.021Z" transform="translate(-963.536 -317.037)"/>
  </g>
</svg>
