<svg xmlns="http://www.w3.org/2000/svg" width="11.636" height="11.761" viewBox="0 0 11.636 11.761">
  <path id="plus" d="M8500.918-2575.756a10.21,10.21,0,0,1,.047-2.953,10.467,10.467,0,0,1-2.709.08,1.456,1.456,0,0,1-.117-2.9,11.413,11.413,0,0,1,2.989-.124,13.237,13.237,0,0,1,.323-3.506,1.3,1.3,0,0,1,2.525.049,13.06,13.06,0,0,1,.19,3.435l.207-.016c1.86-.139,4.3-.279,4.145,1.443a1.2,1.2,0,0,1-.9.92,14.425,14.425,0,0,1-3.424.37,11.3,11.3,0,0,1-.043,3.257,1.577,1.577,0,0,1-1.6,1.336A1.588,1.588,0,0,1,8500.918-2575.756Z" transform="translate(-8496.891 2586.121)"/>
</svg>
