<svg xmlns="http://www.w3.org/2000/svg" width="31.456" height="31.156" viewBox="0 0 31.456 31.156">
  <g id="productivity" transform="translate(-205.895 -578.868)">
    <path id="Path_136712" data-name="Path 136712" d="M6.393,1.126c2.42.368,5.574,1.833,5.648,6.381s-5.207,6.382-7.7,5.355A7.292,7.292,0,0,1,.012,6.847C-.428,4.06,3.972.758,6.393,1.126Z" transform="translate(222.687 594.058)" fill="rgba(249,175,0,0.5)"/>
    <path id="productivity-game" d="M855.673,376.684c-.357.034-.743.05-1.177.05s-.848-.016-1.25-.031c-.658.041-1.326.086-1.973.129h-.01c-1.343.091-2.73.184-4.1.246a10.306,10.306,0,0,1-2.343.348c-.246.018-.479.035-.693.057a8.377,8.377,0,0,1-1.34.11c-1.212,0-4.091-.316-4.653-3.245a28.791,28.791,0,0,1,.062-3.525,27.691,27.691,0,0,0,.054-3.613,35.578,35.578,0,0,1,.108-6.061l.006-.19v-.023l.013,0a.521.521,0,0,0-.095-.009.608.608,0,0,1-.095-.009l.011,0a.234.234,0,0,1,.081-.031c.018,0,.037-.01.052-.016.041-.009.064-.02.069-.031a.017.017,0,0,0,0-.016l0-.047a28.071,28.071,0,0,1-.177-4.392,32.733,32.733,0,0,0-.082-3.561,3.9,3.9,0,0,1,1.067-3.023,5.221,5.221,0,0,1,3.745-1.736h.02c.989-.058,2.062-.086,3.282-.086s2.432.027,3.616.053,2.408.053,3.611.053c1.147,0,2.161-.025,3.1-.076h.062c.575,0,1.161.028,1.728.055l.042,0c.587.028,1.191.057,1.786.057.33,0,.631-.009.919-.027.209-.011.4-.017.586-.017a3.973,3.973,0,0,1,3.454,1.41,6.2,6.2,0,0,1,.883,4.246c-.014.379-.028.769-.023,1.148-.077,1.505-.14,3.035-.2,4.514v.011c-.062,1.493-.125,3.037-.2,4.556-.007.151-.013.3-.017.462a7.981,7.981,0,0,1,1.726,12.412,7.294,7.294,0,0,1-5.437,2.3A9.331,9.331,0,0,1,855.673,376.684Zm.528-3.322c1.038,4.39,6.844,5.113,9.759,2.11a6.373,6.373,0,0,0-4.35-10.9A6.5,6.5,0,0,0,856.2,373.362Zm-15.369-20.55c-.013.209-.032.483-.062.758-.029.921-.01,1.8.007,2.653a29.451,29.451,0,0,1-.146,4.544c-.016.079.014.085.069.1a.4.4,0,0,1,.128.045l.011,0a.47.47,0,0,1-.094.01.51.51,0,0,0-.094.009s0,0,.013,0v.023l.007.19a48.55,48.55,0,0,1,.183,6.048,45.2,45.2,0,0,0,.24,6.5.567.567,0,0,0,.464.362.319.319,0,0,0,.058-.006,7.3,7.3,0,0,1,1.959-.19c.149,0,.3,0,.45,0,.327-.01.621-.015.9-.015a11.293,11.293,0,0,1,2.119.157c1.359-.055,2.741-.081,4.078-.107.642-.012,1.3-.025,1.953-.04.183-.027.369-.05.558-.071a7.308,7.308,0,0,1,.563-6.266.878.878,0,0,1-.155-.53.842.842,0,0,1,.474-.755,2.387,2.387,0,0,1,.79-.25,7.453,7.453,0,0,1,6.3-2.547,7.747,7.747,0,0,1,1.832.163c-.04-1.622-.124-3.26-.2-4.85v-.013c-.065-1.272-.132-2.587-.176-3.879l-.033-1.516c0-.087,0-.173,0-.259a3.13,3.13,0,0,0-.287-1.682.551.551,0,0,0-.363-.159c-.612-.023-1.257-.035-2.033-.035-.642,0-1.3.008-1.888.015h0c-.616.007-1.252.015-1.9.015-1.161,0-2.1-.026-2.96-.082a12.474,12.474,0,0,1-1.559.085c-.454,0-.909-.016-1.35-.031h-.012c-.439-.015-.893-.03-1.339-.03a11.872,11.872,0,0,0-1.811.12c-1.519-.019-3.233-.088-4.556-.147a1.026,1.026,0,0,0-.227-.024,2.549,2.549,0,0,0-1.882,1.195.1.1,0,0,0,0-.025C840.853,352.3,840.836,352.634,840.832,352.812ZM860.8,371.929a.782.782,0,0,1-.17-.324c-.275-1.076-.083-2.2-.321-3.282-.033-.6-.161-1.737.741-1.665.674.118.657.977.779,1.5a21,21,0,0,0,.356,2.5,4.395,4.395,0,0,0,1.034-.86,3.073,3.073,0,0,1,.891-.5,1.02,1.02,0,0,1,1.233,1.42,4.782,4.782,0,0,1-1.391,1.448c-.5.443-.8,1.105-1.457,1.374a1.186,1.186,0,0,1-.534.13A1.282,1.282,0,0,1,860.8,371.929Zm-14.49-2.592c-.371-.2-.35-.2-.467-.261a6.331,6.331,0,0,1-2.03-1.915,1.048,1.048,0,0,1,1.384-1.483,5.78,5.78,0,0,1,2.01,1.333,24.216,24.216,0,0,1,3.884-3.572.743.743,0,0,1,1.041,1.013,24.543,24.543,0,0,1-3.571,4.083c-.167.168-.308.385-.492.544a1.655,1.655,0,0,1-1.088.4A1.629,1.629,0,0,1,846.308,369.337Zm.406-1.863.058-.049.084-.079A.489.489,0,0,0,846.715,367.474Zm-.373-6.448c-.351-.195-.33-.21-.44-.272a10.575,10.575,0,0,1-2.091-1.841,1.021,1.021,0,0,1,1.384-1.483,9.871,9.871,0,0,1,1.908,1.382,22.343,22.343,0,0,1,1.96-2.236c.716-.509,2.321-2.288,3.083-1.059a.808.808,0,0,1,.011.71c-.883,1.956-2.583,3.178-4.1,4.587a1.611,1.611,0,0,1-1.029.366A1.574,1.574,0,0,1,846.342,361.026Zm.381-1.79.043-.042A.408.408,0,0,0,846.723,359.237Zm7.466.759a.884.884,0,0,1,.069-1.558,6.433,6.433,0,0,1,3.361-.275c1.05.05,4.361-.091,3.753,1.72-.424.725-1.483.7-2.188.774C857.57,360.449,855.568,360.823,854.19,360Z" transform="translate(-632.211 230.895)"/>
  </g>
</svg>
