<svg xmlns="http://www.w3.org/2000/svg" width="60.68" height="45.166" viewBox="0 0 60.68 45.166">
  <path id="quote" d="M109.29,563.218c6.494-4.216,11.575-8.906,13.019-16.333a8.336,8.336,0,0,0,.067-1.814l-.425-.039c-5.667-.859-11.531-8.678-8.848-14.864,1.173-3.1,4.253-4.045,6.783-5.37,9.174-6,19.813.715,18.37,11.5.619,4.847-.995,9.961-3.451,14.62-3.572,10.04-14.106,16.958-24.33,16.788-.054,0-.107,0-.16.005A2.4,2.4,0,0,1,109.29,563.218Zm-30.339,0c6.493-4.216,11.574-8.906,13.019-16.333a8.336,8.336,0,0,0,.067-1.814l-.425-.039c-5.667-.859-11.53-8.678-8.848-14.864,1.174-3.1,4.253-4.045,6.784-5.37,9.173-6,19.813.715,18.369,11.5.619,4.847-.994,9.961-3.451,14.62-3.572,10.04-14.1,16.958-24.33,16.788-.054,0-.107,0-.159.005A2.4,2.4,0,0,1,78.951,563.218Z" transform="translate(138.389 567.711) rotate(180)"/>
</svg>
