<svg xmlns="http://www.w3.org/2000/svg" width="24.909" height="25.583" viewBox="0 0 24.909 25.583">
  <path id="scope" d="M10224.32,7028.319a1.953,1.953,0,0,1,.013-.345,15.011,15.011,0,0,1-3.692-.888,7.154,7.154,0,0,1-3.361-2.441c-.025.01-.087.059-.082.036.028-.041.028-.057.018-.059l-.085-.1c-.112-.126-.38-.46-.493-.588a20.688,20.688,0,0,1-1.654-2.585,9.065,9.065,0,0,1-.933-3.053c-.025.007-.052.014-.077.019a1.423,1.423,0,0,1-.65-.064,1.8,1.8,0,0,1-.663-.35.576.576,0,0,1-.069-.812.406.406,0,0,1,.028-.031,1.847,1.847,0,0,1,.627-.414,1.414,1.414,0,0,1,.64-.126,1.039,1.039,0,0,1,.108.017,10.332,10.332,0,0,1,3.083-6.808,10.094,10.094,0,0,1,7.388-3.072,2.423,2.423,0,0,1-.018-.41,1.764,1.764,0,0,1,.236-.694,2.106,2.106,0,0,1,.519-.64.545.545,0,0,1,.769.082.514.514,0,0,1,.057.085,2.115,2.115,0,0,1,.233.786,1.784,1.784,0,0,1-.049.732,1.51,1.51,0,0,1-.082.193,9.773,9.773,0,0,1,6.526,4c.512.84,1.126,1.716,1.56,2.6a8.246,8.246,0,0,1,.844,3.949c0,.021,0,.042,0,.063a2.827,2.827,0,0,1,.921.038c2.624.809,1.043,2.2-.858,1.76-.04-.005-.08-.013-.119-.021a9.088,9.088,0,0,1-.878,3.21,26.287,26.287,0,0,1-1.873,2.523,15.733,15.733,0,0,1-1.616,1.336,7.121,7.121,0,0,1-4.53,1.776,2.534,2.534,0,0,1,.113.778c-.1,1.128-.452,1.577-.822,1.577C10224.869,7030.374,10224.3,7029.466,10224.32,7028.319Zm-7.154-5.964a7.023,7.023,0,0,0,2.608,2.323,7.587,7.587,0,0,0,4.358,1.448c.014-.673.507-1.678,1.223-1.152a1.871,1.871,0,0,1,.551.921c.7-.184,1.374-.456,2.042-.674.277-.105.9-.37,1.159-.5a2.8,2.8,0,0,0,1.109-.64,10.422,10.422,0,0,0,1.769-1.868,19.227,19.227,0,0,0,1.5-3.3,1.8,1.8,0,0,1-.3.043c-.637.01-1.886-.789-1.133-1.464a1.77,1.77,0,0,1,1.341-.324,1.992,1.992,0,0,1,.334.135c-.17-2.017-.525-4.259-2.007-5.754a8.958,8.958,0,0,0-5.922-2.894c0,.028-.007.057-.011.085a3.927,3.927,0,0,1-.121.717,3.281,3.281,0,0,1-.794,1.323.5.5,0,0,1-.706,0,.522.522,0,0,1-.11-.164,3.291,3.291,0,0,1-.222-1.529,2.4,2.4,0,0,1,.087-.437,8.213,8.213,0,0,0-2.566.664,8.465,8.465,0,0,0-3.612,2.878,4.094,4.094,0,0,0-1.036,1.839,8.994,8.994,0,0,0-.674,2.345,2.282,2.282,0,0,1,.428-.024,2.751,2.751,0,0,1,1.317.455.521.521,0,0,1,.142.722.545.545,0,0,1-.1.11,2.765,2.765,0,0,1-1.268.583,3.087,3.087,0,0,1-.608.009A8.959,8.959,0,0,0,10217.166,7022.355Zm8.043-.391a2.839,2.839,0,0,0-.331-.015,7.584,7.584,0,0,1-1.953-.465,2.336,2.336,0,0,1-.725-.332c-.231-.144-.326-.444-.479-.647a4.726,4.726,0,0,1-1.428-2.744,3.277,3.277,0,0,1,.66-2.346c.079-.288.347-.437.524-.642a3.8,3.8,0,0,1,5.725.254c.226.316.313.684.56.974a3.447,3.447,0,0,1,.535,1c.043.257-.019.512.021.761a3.9,3.9,0,0,1-.162,1.974,4.775,4.775,0,0,0-.493.652,3.107,3.107,0,0,1-.869.858,1.815,1.815,0,0,1-1.053.719,1.378,1.378,0,0,1-.22.016C10225.418,7021.981,10225.313,7021.973,10225.209,7021.965Zm-2.683-5.005a3.156,3.156,0,0,0-.27.8c-.044.5-.134,1.195.274,1.588.052.067.157.077.165.183.151.087.377.054.49.146a3.568,3.568,0,0,1,.381.257,1.324,1.324,0,0,0,1.478-.267,3.319,3.319,0,0,1,.5-.111c.047.008.108.039.145.028.144-.049.218-.187.337-.267s.27-.157.326-.3a.575.575,0,0,1,.192-.4,1.749,1.749,0,0,0,.457-.858,1.305,1.305,0,0,0-.1-.483,1.9,1.9,0,0,0-.213-.995,3.4,3.4,0,0,0-1.545-.729,2.526,2.526,0,0,1-.364,0,2.365,2.365,0,0,0-.306,0,2.672,2.672,0,0,0-1.524.681,1.435,1.435,0,0,0-.172.268c-.008.018-.008.036-.057.023A.4.4,0,0,0,10222.526,7016.959Z" transform="translate(-10212.454 -7004.792)"/>
</svg>
