<svg xmlns="http://www.w3.org/2000/svg" width="17.337" height="17.028" viewBox="0 0 17.337 17.028">
  <path id="search" d="M6002.864,6913.707a7.52,7.52,0,0,1-2.143-1.513c-.678-.544-1.558-.847-2.077-1.593a1.339,1.339,0,0,1,1.671-1.994c.833.368,1.294,1.169,1.961,1.728a7.6,7.6,0,0,1,1.893,1.813,1.087,1.087,0,0,1-.92,1.638A.973.973,0,0,1,6002.864,6913.707Zm-13.85-5.456c-4.187-4.173-1.454-11.548,4.617-11.492,3.554-.019,6.665,3.446,6.02,6.875a5.937,5.937,0,0,1-5.966,6.786A6.175,6.175,0,0,1,5989.014,6908.251Zm.628-4.617c-.234,5.441,7.892,4.722,8.612,0a4.515,4.515,0,0,0-4.483-3.735A4.012,4.012,0,0,0,5989.642,6903.634Z" transform="translate(-5987 -6896.758)" fill="rgba(0,0,0,0.7)"/>
</svg>
