<svg xmlns="http://www.w3.org/2000/svg" width="42" height="26.002" viewBox="0 0 42 26.002">
  <path id="toggle-on" d="M17295.67,7736.643a13.3,13.3,0,0,1-1.762-2.143h-10.1a7,7,0,0,1,0-14h9.75a11.2,11.2,0,0,1,1.041-1.326c6.514-7.839,18.473-5.155,21.916,3.144a7,7,0,0,1,.068,10.3,12.769,12.769,0,0,1-11.852,7.882A12.589,12.589,0,0,1,17295.67,7736.643Zm.912-17.307c-4.182,4.433-4.785,12.17-.2,16.59,6.113,6.235,16.523,3.209,19.594-4.1a12.467,12.467,0,0,0,.77-4.306v-.009a12.5,12.5,0,0,0-.68-4.063,12.226,12.226,0,0,0-11.316-7.6A11.21,11.21,0,0,0,17296.582,7719.336Zm6.32,14.26a8.725,8.725,0,0,1-5.768-5.463c-.391-1.108,1.051-2.025,2.043-1.374a16.224,16.224,0,0,1,4.281,2.995c.309-.474.582-.978.859-1.473a14.911,14.911,0,0,1,6.164-6.094,1.122,1.122,0,0,1,1.465.435c.352,1.165-.514,2.425-.918,3.438-1.189,2.625-3.721,4.342-5.541,6.524a3.02,3.02,0,0,1-2.295,1.026C17303.1,7733.609,17303,7733.6,17302.9,7733.6Z" transform="translate(-17276.807 -7714.501)"/>
</svg>
