<svg xmlns="http://www.w3.org/2000/svg" width="47.384" height="36.42" viewBox="0 0 47.384 36.42">
  <g id="zip" transform="translate(0)">
    <path id="Path_136643" data-name="Path 136643" d="M.519,4.85c0-2.544,1.432-4.7,4.266-4.435l1.156,0A92.765,92.765,0,0,0,16.389,0a3.5,3.5,0,0,1,1.5.3A3.609,3.609,0,0,1,19.71,2.621c.229.6.293,1.151.754,1.477a2.9,2.9,0,0,0,1.629.3c5.249-.078,10.876-.061,16.142,0,.337.022,2.566.005,2.882.021a5.57,5.57,0,0,1,5.858,4.651,24.541,24.541,0,0,1,.08,2.477c.013,2.21.184,4.712.1,6.923.089,2.682.23,6.508.2,9.231.284,3.6-1.338,8.79-5.756,8.6-.332.005-1.377-.049-1.731-.052a140.454,140.454,0,0,0-16.156-.02c-6.158-.124-12.31-.1-18.466.151A4.557,4.557,0,0,1,.455,33.008C-.418,30.585.242,28.087.2,25.623.134,18.7.225,11.767.519,4.85" fill="#57b5e2"/>
    <path id="Path_136649" data-name="Path 136649" d="M-7712.547,19597.01c-.871-2.426-.211-4.92-.25-7.385q-.1-10.389.314-20.773c0-2.543,1.432-4.707,4.27-4.437l1.156,0a92.887,92.887,0,0,0,10.448-.408,3.428,3.428,0,0,1,1.5.3,3.6,3.6,0,0,1,1.825,2.316c.226.605.29,1.15.752,1.48a2.9,2.9,0,0,0,1.628.295c5.249-.078,10.876-.059,16.145,0,.334.02,2.563.006,2.877.02a5.569,5.569,0,0,1,5.859,4.654,24.21,24.21,0,0,1,.083,2.475c.01,2.213.182,4.711.1,6.926.088,2.68.231,6.508.2,9.229.285,3.605-1.338,8.789-5.755,8.6-.33.006-1.377-.049-1.731-.055a141.071,141.071,0,0,0-16.155-.02c-6.159-.123-12.312-.1-18.466.152a3.448,3.448,0,0,1-.58.047A4.685,4.685,0,0,1-7712.547,19597.01Zm40.573,1.076a4.654,4.654,0,0,1,.487-.014,4.475,4.475,0,0,0,.585-.02c2.366-.434,2.888-4.187,2.656-6.307-.157-2.74-.1-6.537-.143-9.234-.167-2.2-.083-4.711-.157-6.92-.015-.355-.03-1.379-.044-1.727a2.84,2.84,0,0,0-1.982-2.676,22.472,22.472,0,0,0-4.2-.252c-4.486-.1-9.4-.156-13.857-.389-2.017-.113-5.125.3-6.085-2.17-.374-.924-.433-2.055-1.2-2.508a2.265,2.265,0,0,0-1.323-.211c-.187,0-.359,0-.492-.006a65.913,65.913,0,0,0-6.921.232l-4.525.338c-1.181.182-1.707,1.451-1.663,2.627.35,6.912.5,13.848.492,20.77-.015,1.5.241,3.1.246,4.59.079,1.293.526,3.014,1.771,3.482,1.727.1,3.463.133,5.19.2,4.614.24,9.233.127,13.847.121A153.683,153.683,0,0,0-7671.974,19598.086Zm-32.924-9.783a5,5,0,0,1,.551-3.021.664.664,0,0,1,.207-.3,14,14,0,0,1,5.322-.3,13.978,13.978,0,0,1-.108,2.193,4.74,4.74,0,0,1-1.17,3.174,2.75,2.75,0,0,1-1.811.645A2.908,2.908,0,0,1-7704.9,19588.3Zm1.368-2.549c.015,1.211-.044,3.074,1.574,3.178,1.367.133,1.677-1.48,1.6-2.7a21.113,21.113,0,0,1-3.173-.574A.592.592,0,0,1-7703.53,19585.754Zm22.323,3.592a1.255,1.255,0,0,1-.275-.959l.9-8.924a1.285,1.285,0,0,1,.379-.836,1.125,1.125,0,0,1,.693-.3v-.006l.428-.01a9.06,9.06,0,0,1,2.626.291,4.109,4.109,0,0,1,2.071,1.092,2.558,2.558,0,0,1,.639,2.129,3.78,3.78,0,0,1-.531,1.643,3.476,3.476,0,0,1-1.082,1.078,5.02,5.02,0,0,1-1.387.58,9.871,9.871,0,0,1-1.491.256l-.4.029-.33,3.238a1.42,1.42,0,0,1-.295.732,1.142,1.142,0,0,1-.969.428A1.212,1.212,0,0,1-7681.208,19589.346Zm2.814-6.416.035,0a5.207,5.207,0,0,0,1.087-.266,1.947,1.947,0,0,0,.733-.443.891.891,0,0,0,.266-.58.478.478,0,0,0-.1-.428,1.62,1.62,0,0,0-.826-.32,7.559,7.559,0,0,0-.974-.107Zm-14.3,6.775a1.182,1.182,0,0,1-.817-.33,1.23,1.23,0,0,1-.369-.742,1.2,1.2,0,0,1,.187-.812l4.614-7.084h-2.583a1.3,1.3,0,0,1-.92-.35,1.176,1.176,0,0,1-.383-.83,1.21,1.21,0,0,1,.295-.867,1.149,1.149,0,0,1,.905-.389l4.535.041h.172c.846,0,1.067.246,1.136.328a1.249,1.249,0,0,1,.325.777,1.323,1.323,0,0,1-.226.846l-4.58,6.977h2.578a1.321,1.321,0,0,1,.959.369,1.285,1.285,0,0,1,.344.885,1.218,1.218,0,0,1-.295.807,1.159,1.159,0,0,1-.925.375l-4.958.01Zm7.2-.408a1.232,1.232,0,0,1-.236-.92l.9-8.914a1.1,1.1,0,0,1,.462-.865,1.487,1.487,0,0,1,1.658.023,1.165,1.165,0,0,1,.374,1.127l-.9,8.895a1.044,1.044,0,0,1-.418.771,1.441,1.441,0,0,1-.92.291A1.118,1.118,0,0,1-7685.5,19589.3Zm-16.651-4.881a1.03,1.03,0,0,1-.581-.6,5.483,5.483,0,0,1-.251-1.037,3.492,3.492,0,0,1-1.471-.133.733.733,0,0,1,.029-1.422,3.447,3.447,0,0,1,1.451-.074,9,9,0,0,1,.163-.939,7.473,7.473,0,0,0,.049-2.385,1.311,1.311,0,0,0-.157.049,3.517,3.517,0,0,1-1.426-.143.822.822,0,0,1,.02-1.57,2.864,2.864,0,0,1,1.466-.078,4.109,4.109,0,0,1,.467-1.859.963.963,0,0,1,1.717.045,3.739,3.739,0,0,1,.364,1.982c.994.02,2.145.172,1.923.969a2.873,2.873,0,0,1-2.125.535,8.995,8.995,0,0,0-.118,1.309c.01.768.118,1.521.152,2.273a5.485,5.485,0,0,1,2.224.324.424.424,0,0,1-.02.793,5.581,5.581,0,0,1-2.248.24,4.167,4.167,0,0,1-.334,1.166,1.007,1.007,0,0,1-.93.615A1.162,1.162,0,0,1-7702.153,19584.416Z" transform="translate(7713 -19564)"/>
  </g>
</svg>
