<svg id="arrow-up" xmlns="http://www.w3.org/2000/svg" width="9.99" height="6.852" viewBox="0 0 9.99 6.852">
  <path id="arrow-up-2" data-name="arrow-up" d="M9.022,6.162C7.534,5.306,6.81,4.106,5.632,2.836c-.03-.1-.79.848-.664.653C3.444,5.3,3.437,6.229.938,6.826a.76.76,0,0,1-.931-.537L0,6.262A5.762,5.762,0,0,1,1.71,2.836C2.59,1.893,3.7,1.362,4.583.428A1.49,1.49,0,0,1,5.436.009a1.587,1.587,0,0,1,.782.115,5.037,5.037,0,0,1,2.316,1.95c.566.772,2.666,4.557.488,4.088" transform="translate(0 0)"/>
</svg>
