<svg xmlns="http://www.w3.org/2000/svg" width="17.701" height="17.19" viewBox="0 0 17.701 17.19">
  <path id="calendar" d="M5698.114,4958.316a3.59,3.59,0,0,1-2.812-2.99,3.336,3.336,0,0,1-.023-.586c.138-1.257-.023-2.518-.011-3.776a21.562,21.562,0,0,0,.128-5.127,3.126,3.126,0,0,1,3.146-2.953q.561,0,1.123-.011a1.237,1.237,0,0,1,.06-.4,1.96,1.96,0,0,1,.425-.906c.774-.867,1.819-.143,1.572,1.25,1.435-.045,2.874-.1,4.31-.118a1.07,1.07,0,0,1,.011-.154,1.518,1.518,0,0,1,.241-.809c.577-.839,1.67-.363,1.64.856,0,.037,0,.074-.008.111.232,0,.464.01.7.019l.839.025a3.438,3.438,0,0,1,3.515,3.455c-.148,1.815-.181,3.635-.327,5.455a15.154,15.154,0,0,0,0,2.561,2.955,2.955,0,0,1-3.043,3.571c-1.12.055-2.239.207-3.358.317a36.569,36.569,0,0,0-5.034.221,6.83,6.83,0,0,0-1.435.01c-.286.022-.573.044-.863.044A4.181,4.181,0,0,1,5698.114,4958.316Zm8.122-2.3a9.381,9.381,0,0,0,1.546.014,11.6,11.6,0,0,1,1.265-.014,1.679,1.679,0,0,0,1.68-1.114,12.12,12.12,0,0,0,.19-3.241c-.146-1.819.048-3.639-.1-5.455a1.284,1.284,0,0,0-.194-.636c-.412-.732-1.308-.534-2.012-.526l-1.679.036c-2.8-.017-5.594-.185-8.391-.2a1.676,1.676,0,0,0-1.512,1.887c-.218,1.978.351,3.9.141,5.873a13.764,13.764,0,0,0,.014,1.679c-.027.672.282,1.446,1.035,1.473a5.1,5.1,0,0,1,1.3-.021,33.4,33.4,0,0,1,3.356.194,9.367,9.367,0,0,0,1.773.036c.28-.013.56-.025.84-.025A6.867,6.867,0,0,1,5706.236,4956.015Zm-2.636-2.521c-.5-.333-1.053-.7-.814-1.25a1.123,1.123,0,0,1,.458-.642,1.183,1.183,0,0,1,1.822,1.236,1.109,1.109,0,0,1-.981.814A.846.846,0,0,1,5703.6,4953.493Zm-4.7-.395a1.3,1.3,0,0,1,.286-1.656c.116-.638,1.234-.441,1.608.133.2.274.459.285.429.575a1.408,1.408,0,0,1-1.386,1.383A1.235,1.235,0,0,1,5698.9,4953.1Zm8.948,0a1.089,1.089,0,0,1-.806-1.356c.106-.283.388-.369.618-.489a1.067,1.067,0,0,1,1.633,1.234c-.133.469-.467.632-1.039.632C5708.126,4953.119,5707.991,4953.111,5707.845,4953.1Zm-4.021-3.641a1.372,1.372,0,0,1-1.019-1.71c.136-.356.49-.465.782-.616a1.349,1.349,0,0,1,2.065,1.557c-.169.59-.591.8-1.314.8C5704.182,4949.483,5704.011,4949.474,5703.824,4949.456Zm-4.079-.581c-.6.258-1.257-.6-.983-1.228a1.289,1.289,0,0,1,.521-.731,1.349,1.349,0,0,1,2.078,1.409,1.22,1.22,0,0,1-1.1.791A.631.631,0,0,1,5699.745,4948.875Zm8.093.081c-.5-.333-1.055-.7-.815-1.248a1.13,1.13,0,0,1,.458-.643,1.183,1.183,0,0,1,1.822,1.237,1.107,1.107,0,0,1-.98.813A.844.844,0,0,1,5707.838,4948.957Z" transform="translate(-5695.267 -4941.194)" fill="rgba(0,0,0,0.7)"/>
</svg>
