<svg xmlns="http://www.w3.org/2000/svg" width="47" height="31.156" viewBox="0 0 47 31.156">
  <g id="logo" transform="translate(0 0)">
    <path id="Path_136224" data-name="Path 136224" d="M2640.5,5268.4v-.281l47-13.458v1.667l-41.674,11.934,41.674,11.483v1.647Z" transform="translate(-2640.499 -5253.143)" fill="#f9af00"/>
    <path id="Path_136223" data-name="Path 136223" d="M2640,5281.007c.062-.08.125-.158.188-.237s.118-.162.178-.243c.116-.161.232-.321.341-.48a4.687,4.687,0,0,0,.289-.479,4.549,4.549,0,0,0,.224-.471c-.134.189-.236.356-.337.521-.05.083-.1.167-.155.25s-.115.167-.183.257c-.013-.01-.036-.02-.023-.056-.073.124-.154.256-.241.39a4.464,4.464,0,0,1-.28.4c0-.062.008-.126.014-.192s.009-.134.015-.2a3.539,3.539,0,0,1,.326-.568c.272-.406.542-.8.8-1.194l-.039.01.115-.127c.2-.311.389-.626.566-.953-.023.01-.036.021-.027.032l-.02.049c-.024.031-.049.061-.074.09q-.248.379-.51.73c-.083.083-.188.1-.241.032a.192.192,0,0,1-.028-.157,37.188,37.188,0,0,0,2.162-3.5c.29-.68.549-1.388.777-2.117a16.161,16.161,0,0,1-2.7,4.725q-.211.253-.427.493a.1.1,0,0,1-.113-.034.183.183,0,0,1-.02-.163,20.484,20.484,0,0,0,1.94-3.375,17.605,17.605,0,0,1-1.718,2.555.212.212,0,0,1-.048-.045.208.208,0,0,1-.029-.046c.2-.241.388-.49.574-.749a19.33,19.33,0,0,0,1.784-3.042q.079-.2.155-.41c-.037.005-.08-.045-.061-.11a40.68,40.68,0,0,0,1.477-6.917q-.023-.13-.051-.251c.009-.254,0-.507.007-.759l0-.379c0-.126-.007-.252-.009-.378l-.02-.754q-.022-.376-.046-.752c-.008-.126-.012-.25-.023-.376l-.036-.376c-.027-.25-.041-.5-.073-.754s-.063-.5-.094-.757c-.013-.127-.034-.253-.054-.38s-.04-.253-.06-.38a2.687,2.687,0,0,0-.107-.408,2.482,2.482,0,0,1-.125-.4c-.065-.3-.121-.6-.2-.891-.007,0-.012,0-.017.015-.156-.6-.337-1.193-.547-1.779a13.432,13.432,0,0,0-1.082-1.384.731.731,0,0,0,.07-.121q.43.476.825,1.007c-.167-.428-.352-.854-.556-1.282q-.191-.415-.358-.839c-.106-.261-.223-.518-.34-.776q-.177-.305-.362-.6a.232.232,0,0,1,.183-.1.067.067,0,0,1,.017,0l.074.121c-.06-.253-.115-.484-.181-.72a7.8,7.8,0,0,0-.334-.86s.053-.026.078-.041a1.892,1.892,0,0,1-.142-.244,3.42,3.42,0,0,1,.632.357c.158.081.229.033.1-.422h0c.033.04.063.075.094.11,0,.005.005.009.007.013h0a1.8,1.8,0,0,0,.178.176l-.027-.119a.217.217,0,0,1,.029-.039l.109.133-.1-.139a.265.265,0,0,1,.035-.03l-.012-.022a.279.279,0,0,0,.049,0,.2.2,0,0,1,.058-.017.1.1,0,0,0,.017-.014l.038.021.056.1a.273.273,0,0,0,.083.009,6.257,6.257,0,0,1,.432.46c.123.139.22.225.249.15.016-.1-.152-.328-.341-.581a.405.405,0,0,0-.005-.068c.123.188.166.142.2.1s.06-.076.126.016c.156.289.327.573.479.866.588,1.2,1.044,2.233,1.553,3.453.022.054.042.108.064.162a11.525,11.525,0,0,1,.546,1.783l-.086-.107c.053.245.1.49.163.734.029.121.061.242.1.363s.062.244.1.365l.131.445c.044.148.092.3.126.449.074.3.148.6.22.912s.117.622.17.939c.013.078.027.158.039.239s.017.16.026.241c.017.162.033.325.05.489.11,1.38.16,2.715.147,4.13,0-.291-.027-.58-.033-.87s-.016-.582-.024-.877c.007-.264.01-.527.008-.783-.012.266-.013.526-.008.783,0,.128,0,.256-.012.383s-.015.255-.023.382l0,.069c0,.47,0,.94-.019,1.409a4.928,4.928,0,0,0,.085.624c-.036.082-.065.078-.077.161-.03.215-.062.43-.09.641q-.036.45-.085.9c0,.04,0,.08,0,.119.029.005-.016.252.057.181-.013.125-.036.254-.06.384s-.049.266-.073.4c-.049.268-.09.538-.13.788a3.092,3.092,0,0,0-.028.668,26.7,26.7,0,0,1-1.585,5.389c-.048.114-.1.23-.155.35s-.121.237-.182.356c-.126.237-.254.473-.375.695.135-.347.274-.7.417-1.047l.068-.184a22.277,22.277,0,0,1-1.855,3.548.068.068,0,0,1-.053-.025.14.14,0,0,1-.015-.115,21.769,21.769,0,0,0,1.83-3.5l-.2.377.008-.026c.069-.158.126-.323.187-.486l.012-.032a16.585,16.585,0,0,1-1.424,2.476l.953-1.792q.2-.381.387-.776a1,1,0,0,0-.052-.34q-.335.788-.732,1.521-.354.65-.744,1.246l-.148.229c-.082.08-.156.119-.179.09s-.008-.05.01-.1c.017-.024.035-.047.052-.073a13.216,13.216,0,0,0,1.284-2.436q-.085.143-.17.283c-.162.334-.326.666-.474.956-.144.273-.269.51-.359.68a1.342,1.342,0,0,1-.156.263c-.037,0,.011-.141.1-.354q-.138.24-.279.473c-.063.029-.121.068-.109.082l-.107.2a.081.081,0,0,0,.029.019c-.041.066-.083.131-.126.2-.092.081-.184.109-.224.059a.162.162,0,0,1-.007-.146c.355-.51.707-1.026,1.046-1.558q.226-.419.438-.854c.008-.024.01-.035,0-.03-.07.1-.139.207-.207.31.034-.114.067-.224.093-.329.046-.117.118-.243.176-.364.028-.061.053-.119.074-.173a16.576,16.576,0,0,1-1.826,2.459,17.177,17.177,0,0,1-1.831,2.555A1.333,1.333,0,0,1,2640,5281.007Zm2.167-2.979q.265-.313.519-.647a16.848,16.848,0,0,0,1.069-1.59c.019-.074.04-.146.064-.22a17.937,17.937,0,0,1-1.276,1.719Q2642.365,5277.66,2642.167,5278.028Zm-.752-.139q.093-.1.183-.21.382-.589.721-1.225C2642.027,5276.943,2641.726,5277.423,2641.415,5277.889Zm1.894-5.019a23,23,0,0,1-1.85,3.846q-.32.529-.665,1.024a15.686,15.686,0,0,0,2.905-4.881,21.241,21.241,0,0,0,1.2-5.516c0-.021,0-.042,0-.062,0-.138,0-.275,0-.409A19.753,19.753,0,0,1,2643.309,5272.87Zm-.64,3.634q-.131.31-.269.615c.077-.163.146-.328.217-.492l.053-.125Zm.079.331a13.788,13.788,0,0,0,1.3-1.891,6.345,6.345,0,0,0,.248-.766c.036-.206.072-.434.106-.669.016-.108.033-.218.049-.33a17.26,17.26,0,0,1-1.139,2.325l-.063.118.012-.032-.075.125-.044.117-.1.208c-.074.146-.155.288-.232.431.083-.128.166-.256.244-.384C2642.947,5276.337,2642.844,5276.585,2642.747,5276.835Zm-.194-.545.11-.2c.073-.128.139-.26.2-.391.042-.107.084-.215.125-.323Q2642.783,5275.844,2642.553,5276.29Zm1.671-.288.08-.188-.01-.007C2644.272,5275.872,2644.248,5275.937,2644.224,5276Zm1.191-1.558q-.186.583-.4,1.151c.135-.282.26-.561.367-.832a4.31,4.31,0,0,0,.239-.933c.011-.066.024-.132.037-.2Q2645.544,5274.043,2645.416,5274.444Zm-.379.749-.081.2.054-.123.033-.091A.083.083,0,0,0,2645.037,5275.193Zm-1.6-.175.051-.091.181-.589C2643.593,5274.571,2643.517,5274.8,2643.441,5275.019Zm.005-.554-.028.079.058-.135Zm1,.036.006,0q.08-.164.157-.331-.079.164-.162.324Zm.908-.5c.037-.111.073-.224.109-.336l.009-.046C2645.428,5273.745,2645.389,5273.873,2645.35,5274Zm-.562-.66c-.078.2-.152.391-.212.584q.187-.4.353-.813.039-.179.075-.358C2644.935,5272.95,2644.861,5273.146,2644.788,5273.34Zm.107.465.024-.07a2.19,2.19,0,0,0,.188-.493,0,0,0,0,1,0,0q-.1.25-.2.5l-.012.049.012-.022A.419.419,0,0,0,2644.9,5273.806Zm-.517-2.424c-.213.8-.444,1.6-.7,2.376l.185-.35a13.667,13.667,0,0,0,.662-2.607Q2644.455,5271.092,2644.378,5271.381Zm-.048,1.684c-.037.137-.079.274-.124.412q.149-.341.286-.694a.04.04,0,0,1,0-.005c-.056-.018.053-.237-.029-.179.037-.108.077-.22.114-.332q-.074.156-.148.311C2644.39,5272.749,2644.354,5272.913,2644.33,5273.065Zm-.942-.779c.107-.308.211-.618.306-.931a28.647,28.647,0,0,0,1.116-5.532c-.013-.066-.028-.13-.043-.191A40.024,40.024,0,0,1,2643.388,5272.286Zm1.831-.055q.334-1.217.562-2.488c.007-.195.006-.384.005-.572,0-.1,0-.2,0-.3q-.06.253-.127.5a14.521,14.521,0,0,1-.277,1.818Q2645.31,5271.715,2645.219,5272.231Zm-.571-.839a.245.245,0,0,1,.024.041c-.027.2-.069.413-.117.619q.076-.163.148-.329a.6.6,0,0,0-.031-.291l.005-.033a.533.533,0,0,0,.015-.125Zm.239-1.618c-.022.147-.045.292-.068.436s-.042.289-.062.432-.041.288-.07.429c0,.049.007.13.005.2a3.778,3.778,0,0,0,.205-.985c.015-.155.024-.31.034-.468s.008-.321.017-.492C2644.924,5269.479,2644.9,5269.628,2644.886,5269.774Zm-.924,1.117a18.659,18.659,0,0,0,.632-2.527c.078-.44.14-.883.189-1.328A28.351,28.351,0,0,1,2643.962,5270.891Zm1-1.718c0,.053-.007.1-.009.157.032-.22.076-.442.12-.669A3.323,3.323,0,0,0,2644.957,5269.173Zm1.66-3.5c.018-.864-.005-1.731-.068-2.593q-.025-.344-.058-.686c.033.436.049.909.039,1.357,0,.433-.015.843-.012,1.175,0,.089,0,.178.006.267A1.026,1.026,0,0,0,2646.617,5265.677Zm-1.038-.974c-.005-.028-.01-.057-.014-.085,0,.017,0,.034,0,.052A.213.213,0,0,0,2645.579,5264.7Zm-.443-2.712c.031.115.052.232.072.349.142.658.113,1.458.267,1.95q.01-.179.017-.358c-.008-.092-.014-.186-.019-.28-.012-.187-.016-.38-.029-.574s-.033-.391-.054-.587c-.007-.236-.129-.466-.155-.779-.028-.195-.062-.349-.094-.494s-.062-.278-.1-.432c-.005.038-.01.076-.015.115q.056.516.094,1.035Zm.952-1.139a2.191,2.191,0,0,1,.35,1.041q-.047-.415-.106-.829c-.008-.05-.015-.1-.023-.15-.044-.068-.091-.106-.138-.106A.112.112,0,0,0,2646.088,5260.853Zm.447.883c-.013-.119-.027-.237-.042-.355l-.009-.032Q2646.51,5261.541,2646.534,5261.735Zm-1.711-1.263q-.043-.423-.1-.844a.165.165,0,0,1-.027-.024q.054.356.095.715Zm-.5-2.1c.042.168.086.333.128.5q-.122-.66-.285-1.306-.105-.213-.216-.417c.032.107.064.216.095.324A9.1,9.1,0,0,1,2644.328,5258.375Zm-.915-2.95.007.01.005-.014Zm-.154-2.188-.012-.038-.068-.124Zm-.7-1.47c-.053-.092-.107-.183-.162-.273h-.014C2642.439,5251.584,2642.5,5251.676,2642.556,5251.767Z" transform="translate(-2618.284 -5250)"/>
  </g>
</svg>
