<svg xmlns="http://www.w3.org/2000/svg" width="19.774" height="20.949" viewBox="0 0 19.774 20.949">
  <path id="plan" d="M10220.93,6954.385c-1.584-.033-3.166-.069-4.744.018-.432,0-.863-.021-1.294-.041a16.95,16.95,0,0,0-1.916-.021,3.135,3.135,0,0,1-2.856-.986c-.886-1.184-.591-2.534-.609-3.815.111-2.141.178-4.28.288-6.423.093-1.972-.229-3.933.018-5.9-.038-1.643.526-2.573,2.3-2.542,1.427-.11,2.847-.336,4.274-.5a10.387,10.387,0,0,1,2.151-.072c1.433-.09,2.865-.2,4.3-.265a10.7,10.7,0,0,1,2.146-.287c1.8-.291,3.851.187,4.241,2.218.107,1.733-.206,3.33-.082,5.05a25.413,25.413,0,0,1-.077,4.285l0,.134v.018c-.06,0,.169.01.115.018a.386.386,0,0,1-.093.031c-.049.013-.054.023-.049.034l0,.036c.279,1.985,0,3.7.185,5.625.2,1.831-1.689,3.374-3.417,3.366-.767.043-1.532.059-2.3.059C10222.649,6954.423,10221.789,6954.4,10220.93,6954.385Zm4.88-2.2a1.7,1.7,0,0,0,1.494-.829,3.18,3.18,0,0,0,.021-.352c.011-.177.023-.357.044-.537a48.4,48.4,0,0,1,.1-5.088c.018-.09-.047-.049-.142-.1-.051-.005.175-.013.118-.018v-.016l0-.136c-.339-2.932.095-5.946-.3-8.875a.382.382,0,0,0-.369-.252,6.637,6.637,0,0,1-1.705.139,10.508,10.508,0,0,1-2.133-.1c-1.423.059-2.845.069-4.268.1a19.97,19.97,0,0,1-3.915.048c-.837-.043-1.671-.087-2.5-.064-.267.144-.344.475-.557.639-.46.139-.413.616-.359,1.019a20.07,20.07,0,0,1,0,3.214c-.077,2.857.175,5.723.272,8.58l.023,1.073a2.621,2.621,0,0,0,.2,1.374c.055.054.088.08.257.11.914.033,1.839.023,2.766.013,1.149-.013,2.3-.025,3.444.052a12.861,12.861,0,0,1,2.062-.042,11.971,11.971,0,0,0,2.231-.062C10223.625,6952.09,10224.77,6952.136,10225.81,6952.182Zm-7.776-2.583a3.612,3.612,0,0,1-2.043-1.353,2.648,2.648,0,0,1-1.474.921.715.715,0,0,1-.146.018.627.627,0,0,1-.521-.288.61.61,0,0,1-.057-.575,2.574,2.574,0,0,1,.966-1.211,3.228,3.228,0,0,1-.86-1.106.546.546,0,0,1,.023-.529.569.569,0,0,1,.479-.28.552.552,0,0,1,.206.041,3.331,3.331,0,0,1,1.281.888,3.787,3.787,0,0,1,1.761-1.125.6.6,0,0,1,.167-.026.624.624,0,0,1,.593.447l.016.059v.059a2.065,2.065,0,0,1-.657,1.217c-.057.062-.107.121-.154.175l-.021.025a3.329,3.329,0,0,1-.408.344,4.9,4.9,0,0,1,1.281,1.507.551.551,0,0,1-.224.75l-.1.052Zm4.894-2.044a4.977,4.977,0,0,0-.673-.08,2.977,2.977,0,0,1-.649.077,1.94,1.94,0,0,1-1.1-.329.513.513,0,0,1-.236-.449.505.505,0,0,1,.257-.434,1.9,1.9,0,0,1,1.006-.285,2.938,2.938,0,0,1,.75.11,4.691,4.691,0,0,0,.675-.046,5.014,5.014,0,0,1,.654-.051,2.288,2.288,0,0,1,.272.016c.9.115,1.407.411,1.4.809s-.529.665-1.433.742h0a1.344,1.344,0,0,1-.148.005A4.729,4.729,0,0,1,10222.927,6947.556Zm-7.551-5.008-.022-.01c-.11-.062-.159-.093-.2-.113a.167.167,0,0,1-.025-.015,3.244,3.244,0,0,1-.775-.667c-.591-.67-.529-.989-.509-1.094a.576.576,0,0,1,.642-.449h.064a3.014,3.014,0,0,1,1.317.652c.074-.087.148-.18.221-.274a7.641,7.641,0,0,1,.8-.9l.021-.018c.716-.608,1.186-.883,1.527-.883a.562.562,0,0,1,.408.172.7.7,0,0,1,.144.557l0,.056-.026.049a6.6,6.6,0,0,1-2.148,2.493,2.276,2.276,0,0,0-.18.182,1.132,1.132,0,0,1-.824.357A1.114,1.114,0,0,1,10215.376,6942.547Zm7.415-.979c-.2-.028-.38-.056-.56-.072a2.589,2.589,0,0,1-.655.092,1.712,1.712,0,0,1-1.1-.4.593.593,0,0,1-.231-.485.6.6,0,0,1,.254-.475,1.738,1.738,0,0,1,1.035-.347,2.487,2.487,0,0,1,.734.124c.188-.008.377-.031.564-.049a7.8,7.8,0,0,1,.785-.054,2.326,2.326,0,0,1,1.423.429.548.548,0,0,1,.238.362.583.583,0,0,1-.084.437l-.016.021-.021.021a1.994,1.994,0,0,1-1.4.49A6.685,6.685,0,0,1,10222.791,6941.569Z" transform="translate(-10209.478 -6933.474)" fill="#040405"/>
</svg>
