<svg xmlns="http://www.w3.org/2000/svg" width="33.952" height="35.13" viewBox="0 0 33.952 35.13">
  <path id="star" d="M10.22,14.89a14.557,14.557,0,0,1,1.035-5.3c.737-1.608,1.868-3.027,2.373-4.747a20.716,20.716,0,0,0,1.016-3.4,1.842,1.842,0,0,1,3.518-.269l5.958,9.858-1.13-.87,9.539,2.8a1.938,1.938,0,0,1,1.343,2.413c.356-.019-5.909,8.006-5.943,8.168l.338-1.227.812,11a1.658,1.658,0,0,1-2.519,1.559l-8.92-5.658,1.6-.015L10.3,34.731a1.347,1.347,0,0,1-2.077-1.149l.283-11.115.554,1.006L.5,18.036a1.042,1.042,0,0,1,.073-1.825L11.538,10.73a.916.916,0,0,1,.836,1.63L1.534,18.077l.072-1.824,8.686,5.229a1.146,1.146,0,0,1,.554.972c-.023.051.093,11.1.077,11.153L8.847,32.457l8.769-5.791a1.471,1.471,0,0,1,1.6-.015l9.081,5.395-2.518,1.56L24.644,22.638a1.735,1.735,0,0,1,.306-1.182c.029-.036,5.413-7.719,5.445-7.762l1.036,3.025-9.545-2.78a1.975,1.975,0,0,1-1.131-.869L14.779,3.223,18.3,2.954a26.8,26.8,0,0,0-3.355,8.16c-.521,1.074-2.91,5.979-4.434,4.472a1.009,1.009,0,0,1-.289-.7" transform="translate(0.001 0)" fill="#6d7b7b"/>
</svg>
