<svg xmlns="http://www.w3.org/2000/svg" width="46.04" height="102.191" viewBox="0 0 46.04 102.191">
  <g id="actor" transform="translate(0.253 0.25)">
    <path id="Path_136765" data-name="Path 136765" d="M-7.518,3.189c-.958,7.473,9.824,8.938,18.106,8.717,9.133-.244,19.8-5.511,19.256-2.2-1,6.1-16.466,7.568-20.884,7.568S-8,14.973-10.679,11.906-11.936,3.189-7.518,3.189Z" transform="translate(14.052 82.969)" fill="rgba(249,175,0,0.5)"/>
    <path id="Path_136766" data-name="Path 136766" d="M6.307,1.77c4.418,0,9.714,1.867,8.718,7.971S12.418,16,8,16,.577,11.482.7,8.992,1.888,1.77,6.307,1.77Z" transform="translate(14.052 2.969)" fill="rgba(249,175,0,0.5)"/>
    <path id="Path_136764" data-name="Path 136764" d="M11.066,4.924c6.8,5.9,5.068,22.953,4.983,31.314s.963,27.354,0,31.039c-.851,3.457-4.3,1.191-4.088-1.246.354-2.664.421-35.405-.485-35.254-1.74.284-3.925-.524-5.894,1.684-1.2,1.346.029,28.859-.469,33.344-1.245,3.361-3.953,1.151-5.442.963-.862-.109,0-33.808-1.017-33.931-1.709-.207-3.313-.376-4.227-.376-4.971,0-2.644-26.316-.651-30.428S4.265-.973,11.066,4.924Z" transform="translate(14.052 25.969)" fill="rgba(249,175,0,0.5)"/>
    <path id="Path_136767" data-name="Path 136767" d="M-13013.684,20662.75c-.742-.072-1.5-.145-2.251-.207a14.565,14.565,0,0,1-4.687-.617c-.353-.094-.711-.182-1.063-.275a42.555,42.555,0,0,1-5.8-1.789,7.986,7.986,0,0,1-4.05-3.24,7.293,7.293,0,0,1-1.328-2.547l0-.025a6.071,6.071,0,0,1,1.758-5.43,14.206,14.206,0,0,1,4.284-2.572,1.025,1.025,0,0,1,.394-.078,1.031,1.031,0,0,1,.954.643,1.033,1.033,0,0,1-.445,1.291,10.305,10.305,0,0,0-4.159,4.066,2.721,2.721,0,0,0,.285,2.168,4.039,4.039,0,0,0,1.446,1.389c.192.135.39.275.581.426a19.642,19.642,0,0,0,7.7,3.553,34.572,34.572,0,0,1,4.382.922,29.378,29.378,0,0,0,3.723.225,61.362,61.362,0,0,0,9.558-.934l.021-.006a24.405,24.405,0,0,0,6.343-1.555c2.038-.742,4.559-1.836,5.917-3.709l0-.01c1.722-2.209-.467-4.367-1.488-5.191l-.016-.01c-1.6-1.535-3.775-2.117-5.886-2.682-.157-.041-.315-.084-.474-.127-.04,1.6-.076,3.2-.1,4.773a5.167,5.167,0,0,1-1.437,3.754,5.135,5.135,0,0,1-3.636,1.457,5.065,5.065,0,0,1-3.422-1.275,5.1,5.1,0,0,1-1.592-3.842c0-1.912.027-3.844.067-5.752h-.011a.393.393,0,0,1-.327-.217.335.335,0,0,0-.1-.119.989.989,0,0,1-.108-.078.254.254,0,0,1-.052-.037.439.439,0,0,1-.224.068c-.021,0-.047-.006-.067-.006a.379.379,0,0,1-.28-.238.136.136,0,0,0-.025-.01c-.021.016-.042.035-.062.051a1.971,1.971,0,0,1-.824.416l-.177.041-.031-.053a.306.306,0,0,1-.067.012.265.265,0,0,1-.124-.031l0-.006c-.006,0-.016-.006-.021-.006a1.053,1.053,0,0,1-.228.021,2.435,2.435,0,0,1-.487-.062l-.068-.016c0,1.738.006,3.473.016,5.191a5.759,5.759,0,0,1-1.363,4.521,5.314,5.314,0,0,1-3.921,1.691,5.066,5.066,0,0,1-3.516-1.359,5.653,5.653,0,0,1-1.644-4.117v-.006c.052-10,.171-19.961.348-29.666a4.547,4.547,0,0,1-2.121.518,4.1,4.1,0,0,1-4.024-2.961,4.9,4.9,0,0,1-.13-1.83c0-.1.011-.2.016-.291.047-2.018-.047-4.07-.14-6.053a68.337,68.337,0,0,1-.062-7.648l.031-.684c.166-3.133.337-6.369.28-9.547a6.741,6.741,0,0,1,.777-3.941,6.255,6.255,0,0,1,2.894-2.775,8.91,8.91,0,0,1,5-1,19.5,19.5,0,0,0,2.2-.088h.011c2.723-.172,6.337-.234,9.526-.285,1.5-.027,2.914-.053,4.174-.084h.036a16.679,16.679,0,0,0,1.9.094c.41,0,.83-.01,1.234-.021s.83-.016,1.25-.016l.031.006a7.824,7.824,0,0,1,5.906,4.086,8.12,8.12,0,0,1,.788,4.014l-.057,6.84c-.114,5.881-.239,11.611-.54,17.1a4.363,4.363,0,0,1-1,3.537,4.062,4.062,0,0,1-3.05,1.354,3.924,3.924,0,0,1-1.413-.262c0,1.158,0,2.316,0,3.467.357,6.176.187,12.637.026,18.887,0,.082,0,.166-.007.248a19.805,19.805,0,0,1,4.357,1.707c.384.2.777.389,1.161.574a11.017,11.017,0,0,1,4,2.738,5.558,5.558,0,0,1,1.468,3.277,5.042,5.042,0,0,1-.872,3.506,12.48,12.48,0,0,1-5.061,4.086,36.181,36.181,0,0,1-6.141,2.1l-.016,0-.021.006c-.7.078-1.421.229-2.115.373a17.166,17.166,0,0,1-3.117.445,27.592,27.592,0,0,1-2.95.146C-13009.39,20663.16-13011.573,20662.953-13013.684,20662.75Zm.8-46.387,6,.082h.01a1.352,1.352,0,0,1,.97.406,1.329,1.329,0,0,1,.39.969c-.047,4.283-.135,8.682-.265,13.068-.125,4.543-.016,9.168.088,13.645.058,2.422.114,4.92.135,7.379a2.41,2.41,0,0,0,2.442,2.064,2.375,2.375,0,0,0,2.427-2.127c.016-2.992-.082-6.176-.171-9.246-.114-3.666-.228-7.457-.155-11-.021-1.09.041-2.437.1-3.74.052-1.016.1-1.98.1-2.795.031-3.158.031-6.373.031-9.479,0-3.314,0-6.742.036-10.117l.327-13.068a1.015,1.015,0,0,1,1.048-.99.981.981,0,0,1,1.016.984c.275,8.082.36,17.338.386,26.516a2.244,2.244,0,0,0,1.735.85,1.9,1.9,0,0,0,1.183-.41l.011,0a2.521,2.521,0,0,0,.782-2.35v-.01l-.176-3.424c-.187-5.311-.306-9.785-.368-13.7l-.058-6.855v0a4.841,4.841,0,0,0-1.26-3.678,4.68,4.68,0,0,0-3.459-1.451h-.057c-.39-.021-.788-.031-1.187-.031-.711,0-1.452.035-2.2.1h-.025l-6.846-.129c-.7-.027-1.405-.043-2.085-.062-1.561-.037-3.179-.084-4.771-.178-.41-.01-.835-.041-1.244-.066-.565-.031-1.146-.072-1.717-.072a5.967,5.967,0,0,0-3.163.709c-2.676,1.977-2.453,5.451-2.24,8.807.067,1.027.129,2,.1,2.908.01.934.077,1.883.14,2.8a37.516,37.516,0,0,1,.119,4.055c-.021.826-.067,1.666-.114,2.484-.082,1.422-.165,2.895-.108,4.336v.016c0,.467-.026.949-.047,1.416a13.313,13.313,0,0,0,.119,3.309,1.779,1.779,0,0,0,1.665,1.281,1.753,1.753,0,0,0,.6-.115l.01-.006a1.885,1.885,0,0,0,1.2-1.643,1.184,1.184,0,0,1,.044-.256c.2-4.336.094-8.727,0-12.979-.094-3.988-.187-8.105-.042-12.166a1.024,1.024,0,0,1,1.068-.99,1.039,1.039,0,0,1,1,.99c.145,4.061.052,8.178-.042,12.166-.1,4.248-.2,8.635-.008,12.967a1.108,1.108,0,0,1,.05.271v.006a4.789,4.789,0,0,1-.013.49c0,.076.008.15.013.225v.006c.093,2.811.119,5.668.145,8.428.016,1.523.031,3.1.058,4.641.129,7.883.2,14.293.2,19.6a2.652,2.652,0,0,0,.16,1.1,2.173,2.173,0,0,0,2.105,1.447,2.214,2.214,0,0,0,2.3-2.127v-.01c.01-.109.01-.633,0-.912v-.213c.021-4.553.011-9.215,0-13.732-.015-6.223-.025-12.664.042-18.934a1.422,1.422,0,0,1,.415-1.025,1.414,1.414,0,0,1,1.017-.426Zm2.655,25.934a1.647,1.647,0,0,1,.84.389.833.833,0,0,0,.119.094c0-.006.016-.006.026-.01a.371.371,0,0,1,.3-.219h.046a.517.517,0,0,1,.249.078.964.964,0,0,0,.3-.213.388.388,0,0,1,.319-.207c.087-3.723.165-7.551.049-11.32-.119-3.879-.2-7.8-.254-11.684l-3.185.041c.052,5.777.042,11.689.031,17.414,0,1.91-.009,3.846-.01,5.789a1.967,1.967,0,0,0,.2-.043,1.732,1.732,0,0,1,.384-.062.851.851,0,0,1,.161.016c.011,0,.016-.006.021-.006a.012.012,0,0,1,.011,0,.225.225,0,0,1,.13-.037.267.267,0,0,1,.072.01l.031-.057Zm.27-60.518h-.021c-2.09-.254-4.709-.768-6.467-2.5l-.011-.012c-1.9-2.121-3.853-4.709-3.91-7.855a9.754,9.754,0,0,1,2.754-7.162,10.154,10.154,0,0,1,7.3-3.277c.125,0,.255,0,.379.01a9.878,9.878,0,0,1,4.766,1.385,9.122,9.122,0,0,1,3.443,3.553,8.673,8.673,0,0,1,1.815,5.486c.052,1.68-.036,4.1-1.442,5.768-.129.166-.27.361-.425.574-.265.359-.534.732-.783,1.018l-.025.02c-.1.084-.2.172-.3.26a10.463,10.463,0,0,1-3.973,2.566l-.016.006a10.7,10.7,0,0,1-2.183.176C-13009.364,20581.789-13009.67,20581.785-13009.955,20581.779Zm-5.787-15.143-.006.01a.65.65,0,0,0-.072.115,1.034,1.034,0,0,1-.321.379,4.438,4.438,0,0,0-.467.684c-1.11,2.547-1.546,6.135.523,8.6l0,.01a5.446,5.446,0,0,0,1.66,1.25c.285.166.58.338.86.529a5.363,5.363,0,0,0,2.977.83,6.847,6.847,0,0,0,1.344-.131c.6-.16,1.2-.393,1.778-.611.337-.129.689-.264,1.032-.383a4.208,4.208,0,0,1,.451-.172,2.069,2.069,0,0,0,.829-.477c.172-.178.353-.338.534-.5a5.2,5.2,0,0,0,1.017-1.105c.161-.342.337-.674.5-1a7.476,7.476,0,0,0,1.12-3.268,10.374,10.374,0,0,0-1.208-4.512,8.488,8.488,0,0,0-6-3.064h-.011c-.187-.016-.378-.021-.564-.021A7.847,7.847,0,0,0-13015.742,20566.637Z" transform="translate(13032.696 -20561.219)" fill="#060708"/>
  </g>
</svg>
