<svg xmlns="http://www.w3.org/2000/svg" width="30.529" height="31.234" viewBox="0 0 30.529 31.234">
  <g id="attention" transform="translate(-405.865 -578.868)">
    <path id="Path_136716" data-name="Path 136716" d="M16.968,2.062c5.945.472,8.872,9.908,8.965,15.192s-5.1,4.341-10.569,4.435S6.589,20.557,6.4,17.726,11.024,1.591,16.968,2.062Z" transform="translate(404.965 583.307)" fill="rgba(249,175,0,0.5)"/>
    <path id="attention-game" d="M666,338.835c-2.594-1.27-2.06-4.525-1.668-6.787.955-6.981,5.3-12.73,9.274-18.311,2-2.9,6.6-6.927,9.936-2.921,1.6,1.771,1.792,4.337,3.164,6.247,2.8,4.134,5.843,8.094,7.742,12.785a1.039,1.039,0,0,1-1.737,1.078,61.267,61.267,0,0,1-5.782-8.056c-1.324-2.088-2.4-4.367-4.26-6.058a13.623,13.623,0,0,1-2.957-2.919c-6.066,2.933-9.582,12.491-12.45,18.852-.349.949-.658,2.892-.147,3.49,4.361,1.366,9,.818,13.572,1.095.922-.009,1.851.016,2.782.041a30.444,30.444,0,0,0,7.052-.357,1.408,1.408,0,0,1,.65,2.739c-4.746.033-9.562.615-14.336.616A33.69,33.69,0,0,1,666,338.835Zm11.4-7.652a2.453,2.453,0,0,1,3.365-1.343c1,.111,2.389,1.429,1.826,2.731-.246.651-.367,1.245-.9,1.522a2.821,2.821,0,0,1-1.555.465A2.712,2.712,0,0,1,677.4,331.183Zm.918-3.148a1.862,1.862,0,0,1-.55-1.39,41.325,41.325,0,0,1,.431-6.577.909.909,0,0,1,1.1-.738c.253.044.846.286.846.821,0,1.4.3,2.572.393,3.926-.015,1.737,1.246,2.654.146,3.853a1.853,1.853,0,0,1-1.294.449A1.625,1.625,0,0,1,678.316,328.034Z" transform="translate(-258.135 269.735)"/>
  </g>
</svg>
