<svg xmlns="http://www.w3.org/2000/svg" width="20.938" height="12.415" viewBox="0 0 20.938 12.415">
  <path id="eye" d="M6193.443,6940.747a15.2,15.2,0,0,1-3.418-3.345c1.422-2.094,3.285-4.31,5.694-5.372a6.63,6.63,0,0,1,4.514-1.013,16.715,16.715,0,0,1,4.524.863,32.01,32.01,0,0,1,5.92,4.5.843.843,0,0,1,.066,1.2c-.663.734-1.345,1.449-2.021,2.168a10.86,10.86,0,0,0-1.412,1.276c-.322.2-.645.466-.974.652a10.554,10.554,0,0,1-5.88,1.745A10.217,10.217,0,0,1,6193.443,6940.747Zm6.835-7.988c-1.178.108-2.459.7-3.793.929a10.1,10.1,0,0,0-2.236,1.354,17.117,17.117,0,0,1-3.018,2.36,11.351,11.351,0,0,1,2.285,2.129,3.964,3.964,0,0,0,1.1.8,10.944,10.944,0,0,0,5.139,1.306,4.705,4.705,0,0,1-3.3-2.337,4.04,4.04,0,1,1,6.8,1.252,3.542,3.542,0,0,1-1.193.846,10.037,10.037,0,0,0,3.257-1.324,27.1,27.1,0,0,0,3.456-3.123,11.574,11.574,0,0,0-3.341-3.143,14.4,14.4,0,0,0-4.339-1.115A4.886,4.886,0,0,0,6200.278,6932.759Zm-2.619,4.913a2.7,2.7,0,0,0,2.717,2.953,3.077,3.077,0,1,0-2.717-2.953Zm1.088.487c-.562-.358-1.186-.751-.928-1.327a1.134,1.134,0,0,1,.5-.667c.958-.583,2.347.214,2.05,1.33a1.175,1.175,0,0,1-1.064.838A1.006,1.006,0,0,1,6198.748,6938.159Z" transform="translate(-6190.025 -6931)"/>
</svg>
