<svg xmlns="http://www.w3.org/2000/svg" width="20.868" height="24.702" viewBox="0 0 20.868 24.702">
  <path id="user-menu" d="M-17.285-14.19c-.038.154.154.308.154.461l.038.115c.038.038.115.077.115.154.038.038.038.115.077.192,0,.038.038,0,.038.038,0,.077.077.116.115.193v.077c.077.038.115.231.154.346,0,.038.038,0,.038.038,0,.077,0,.077.038.115.038.154.115.308.154.462v.077h.038c.038.115.038.231.077.308,0,.038.038,0,.038.038l.038.115a5.606,5.606,0,0,1,.154.961l.115.923c0,.038.038.077.038.115a.49.49,0,0,0,.038.231v.077c.077.077.038.308.077.5a1.616,1.616,0,0,0,.077.423.038.038,0,0,1,.038.038.822.822,0,0,0,0,.308c0,.038.038.038.038.077a.892.892,0,0,1-.077.308c0,.038.038.231,0,.269-.077.038-.077.308-.115.423v.077a1.283,1.283,0,0,0-.115.308.038.038,0,0,0-.038.038.779.779,0,0,1-.308.538c-.077.077-.231.077-.346.116s-.231,0-.385.038a.037.037,0,0,1-.038.038h-.193a.038.038,0,0,1-.038.038,1.725,1.725,0,0,0-.461-.038c-.192.038-.615.077-.846.116-.077.038-.23.038-.308.077a.417.417,0,0,0-.192.038.419.419,0,0,0-.192.038c-.038,0-.077.038-.115.038a12.489,12.489,0,0,0-1.73-.077c-.308,0-.577.038-.885.038-.077,0-.192-.038-.269,0-.115,0-.192.038-.384.038-.038,0-.154-.038-.192,0s-.038,0-.192,0h-.231a.037.037,0,0,0-.038-.038h-.308a1.673,1.673,0,0,1-.192.038c-.038,0-.077-.038-.154-.038-.115,0-.23.038-.346.038-.154,0-.269-.038-.423-.038a.037.037,0,0,1-.038.038c-.192,0-.423.038-.654.038h-.23c-.077,0-.077.038-.116.038-.692,0-1.346-.077-2-.038-.308,0-.692.077-1.038.077a7.213,7.213,0,0,1-1.269-.077h-.077c-.077-.038-.038-.038-.23,0a7.462,7.462,0,0,1-1.808-.077.829.829,0,0,0-.308,0c-.269.038-.615-.115-.961-.115h-.077c.038,0-.269.115-.308.038-.077-.077-.269-.038-.461-.077h-.077v-.038a4.589,4.589,0,0,1-1.115-.154.038.038,0,0,0-.038-.038h-.038A2.567,2.567,0,0,1-36.012-6c-.154-.116-.231-.116-.346-.269,0-.038-.077-.077-.077-.077-.077-.192.038-.5.038-.731,0-.038.038-.192,0-.231-.115-.077,0-.923.038-1.077.038-.192.115-.384.154-.576.077-.269.077-.769.154-1.077,0-.038.038-.077.038-.116a10.191,10.191,0,0,1,.384-1.461.038.038,0,0,1,.038-.038c.038-.115.038-.231.115-.308.038-.038.077-.115.115-.154.038-.077.077-.192.116-.269,0-.038.077-.077.077-.077a.141.141,0,0,0,.038-.115.387.387,0,0,1,.038-.115l.077-.038a.142.142,0,0,0,.038-.116,3.564,3.564,0,0,1,.192-.307c.038-.038.077-.038.077-.077a3,3,0,0,1,.346-.5.381.381,0,0,1,.192-.154c.077-.077.077-.154.154-.192.038-.038.077-.038.077-.077s.038-.038.038-.077.077-.077.077-.077c0-.268,0-.307,0-.346s.077-.077.077-.077a.142.142,0,0,0,.038-.115c.038-.038.077-.038.077-.077a3.562,3.562,0,0,1,.192-.308.83.83,0,0,1,.193-.154c.115-.115.192-.231.346-.384.038-.038.115-.038.154-.116,0-.077.269-.23.384-.346a2.455,2.455,0,0,0,.308-.346,4.1,4.1,0,0,1,.423-.231l.038-.077h.077c.077-.038.154-.154.23-.192.231-.154.462-.423.692-.615a1.026,1.026,0,0,1,.231-.193h.077a.416.416,0,0,0,.154-.192c.038-.116-.038-.192-.115-.269h-.077a.843.843,0,0,1-.116-.193c-.077-.077-.154-.115-.192-.192l-.116-.23c-.077-.077-.154-.116-.192-.192l-.385-.384-.077-.077c-.038-.077-.077-.115-.115-.192-.038-.038-.038-.077-.077-.154A.038.038,0,0,0-31.629-20c-.038-.077,0-.115-.038-.192,0-.038-.077-.077-.077-.077-.077-.154-.154-.346-.231-.538A.426.426,0,0,0-32.013-21c0-.038-.077-.077-.077-.077-.038-.077-.038-.192-.077-.308,0-.038-.038,0-.038-.038,0-.154-.154-.346-.192-.5,0-.115.038-.23.038-.384,0-.115-.038-.384-.038-.576v-.5a.038.038,0,0,1-.038-.038c0-.077-.038-.193-.038-.346a6.094,6.094,0,0,1,.346-1.384c.038-.154.077-.308.116-.423a.037.037,0,0,0,.038-.038c0-.077.077-.077.116-.154,0-.077.077-.077.115-.154,0-.077.077-.077.115-.154l.038-.077c.116-.192.269-.384.385-.577,0-.038.038,0,.038-.038,0-.077.077-.077.115-.154,0-.077.077-.077.115-.154,0-.038.077-.038.077-.077v-.077l.077-.038v-.077h.038v-.077c.038-.038.077-.038.077-.077.038-.038.077-.115.154-.192l.077-.038V-27.8c.038-.038.077-.038.154-.077l.077-.077.231-.116c.077-.077.115-.154.193-.192a1.2,1.2,0,0,1,.423-.308l.231-.116.038-.077c.077-.038.116-.038.192-.077l.077-.077.077-.077h.077v-.038h.077v-.038h.077v-.038h.077a.413.413,0,0,1,.192-.115.134.134,0,0,0,.077-.038l.116-.038v-.038h.077a2.836,2.836,0,0,1,.461-.193,2.858,2.858,0,0,1,.692-.115c.308-.038.654-.115.961-.154a1.068,1.068,0,0,0,.346-.038.038.038,0,0,1,.038-.038h.115a1.326,1.326,0,0,0,.346-.038,6.551,6.551,0,0,1,1.192.038,8.788,8.788,0,0,1,1.038.077.038.038,0,0,0,.038.038h.193a.038.038,0,0,0,.038.038c.077,0,.23.154.384.192l.346.115a5.124,5.124,0,0,1,.885.5.674.674,0,0,1,.192.154l.038.038c.038.038.115,0,.154.038l.038.077c.077.038.116.038.154.115a1.663,1.663,0,0,1,.27.385c0,.038.038,0,.038.038s.116.154.116.23c.077.077.192.077.192.193.154.192.269.308.385.461a1.02,1.02,0,0,1,.192.231c.038.038.038.077.077.154,0,.038.077.077.077.077.038.077.038.193.077.308a.037.037,0,0,1,.038.038v.038c0,.038.038.077.038.116a.037.037,0,0,0,.038.038c.038.077,0,.116.038.192.038.038.077.038.077.077a1.006,1.006,0,0,1,.077.192,2.072,2.072,0,0,0,.115.384v.077a2.614,2.614,0,0,1,.116.308v.077c.038.038.038.115.077.269a.038.038,0,0,1,.038.038c0,.077.038.077.038.115.038.077,0,.154.038.231a.038.038,0,0,1,.038.038v.115h.038a3.288,3.288,0,0,1,0,.615v.115a3.849,3.849,0,0,1-.077,1.308c-.038.154-.038.308-.077.423a.038.038,0,0,0-.038.038v.192c-.038.115-.038.154-.077.308V-21c-.038.038,0,.116-.038.154a1.281,1.281,0,0,0-.154.384c-.038.038-.077.115-.115.154a.29.29,0,0,0-.038.154c0,.038-.038,0-.038.038,0,.077-.077.077-.115.154a.136.136,0,0,1-.038.077.231.231,0,0,0-.038.154l-.077.038c-.038.077-.038.154-.116.231s-.192.154-.269.23a2.269,2.269,0,0,0-.269.308c-.038.038-.077.038-.077.077v.077c-.077.038-.077.077-.154.154l-.038.115h-.038v.077h-.038c-.038.038,0,.115-.038.154-.077.077-.231.115-.269.192V-18a.257.257,0,0,0-.077.384l.038.077h.077c.038.038.077.115.115.154h.077l.038.077h.077a1.047,1.047,0,0,0,.308.231c.038,0,0,.038.038.038s.038.077.077.077h.077a.864.864,0,0,1,.115.192,2.106,2.106,0,0,1,.384.423c.077.154.308.308.423.5,0,.038.038,0,.038.038s.077.115.116.192a2.14,2.14,0,0,0,.269.308l.23.346A3.373,3.373,0,0,0-17.285-14.19Zm-9.191-13.651a1.536,1.536,0,0,0-.5.154h-.077a3.2,3.2,0,0,0-.461.154.134.134,0,0,0-.077.038c-.077.038-.154.115-.192.115a.134.134,0,0,0-.077.038c-.038.038-.116.115-.154.115h-.077l-.038.077c-.038.038-.115.038-.192.077L-28.36-27h-.077c-.038.038-.115.115-.154.115l-.077.077v.077h-.038v.077c0,.038-.077.038-.077.077v.038c0,.038-.038,0-.038.038a.141.141,0,0,0-.038.115l-.077.038a.19.19,0,0,0-.038.115h-.038v.077c-.038.038-.115.038-.154.077V-26c-.038.077-.154.077-.192.116s-.038.077-.077.115v.077c0,.038-.077.038-.077.077-.038.038-.038.154-.038.154a.141.141,0,0,0-.038.115.038.038,0,0,1-.038.038c-.077.231-.116.577-.192.846h-.038v.077c0,.077,0,.077-.038.115v.077a3.987,3.987,0,0,0-.038,1.153A.038.038,0,0,0-29.9-23c.038.192,0,.461.038.654l.038.038a1.306,1.306,0,0,0,.115.308c.077.115.077.269.116.308a.649.649,0,0,1,.077.192.038.038,0,0,0,.038.038c.038.077,0,.116.038.192l.077.038v.077h.038v.077c0,.038.077.077.077.077a.844.844,0,0,1,.154.192c.115.115.23.269.346.384a3.126,3.126,0,0,1,.384.346,1.65,1.65,0,0,0,.231.269,1.177,1.177,0,0,0,.269.193c.038,0,.077.038.115.038a.3.3,0,0,1,.115.077h.077c.038,0,.038.077.077.077l.077.038c.038,0,0,.038.038.038a.658.658,0,0,0,.654.038,5.565,5.565,0,0,1,1.115-.154c.5,0,1.115.038,1.615.077a4.774,4.774,0,0,0,.615.154h.192a.922.922,0,0,0,.308.077,1.273,1.273,0,0,0,.423-.308.387.387,0,0,1,.154-.192c.038-.038.077-.038.077-.077l.038-.077c0-.038.038,0,.038-.038.115-.154.193-.308.308-.462a.141.141,0,0,0,.038-.115c0-.038.077-.038.077-.077a.142.142,0,0,0,.038-.116,1.276,1.276,0,0,0,.116-.23c.038-.115.192-.308.192-.385a.037.037,0,0,1,.038-.038,6.75,6.75,0,0,0,.384-1.154,4.8,4.8,0,0,0,.154-.615c.038-.192,0-.384.038-.576a2.6,2.6,0,0,0,.077-.539,3.621,3.621,0,0,0-.115-1.308,5.493,5.493,0,0,0-.654-1c-.038-.077-.115-.116-.154-.192-.077-.115-.231-.461-.385-.461-.115,0-.192-.231-.23-.269h-.077l-.038-.077a.19.19,0,0,0-.115-.038c-.038-.038-.077-.077-.115-.077-.115-.077-.192-.077-.308-.154a5.007,5.007,0,0,0-.461-.231h-.038a.038.038,0,0,1-.038-.038c-.116-.038-.231-.038-.385-.077a7.516,7.516,0,0,0-1.307-.115.038.038,0,0,0-.038.038A7.319,7.319,0,0,1-26.475-27.841Zm7.96,19.611c-.038-.115.038-.269.038-.346s-.038-.077-.038-.116c-.077-.769-.154-1.577-.269-2.192a.038.038,0,0,0-.038-.038,2.459,2.459,0,0,0-.154-.5.645.645,0,0,1-.077-.192c0-.038-.038-.077-.038-.115v-.077c0-.038-.077-.077-.077-.077-.038-.077-.038-.154-.077-.23a3.429,3.429,0,0,0-.269-.539c-.038-.038,0-.077-.038-.115l-.077-.038c-.038-.038,0-.077-.038-.115-.038-.077-.115-.116-.154-.192-.077-.154-.192-.269-.269-.423-.154-.192-.346-.346-.462-.5-.038-.077-.077-.154-.115-.23a1.311,1.311,0,0,0-.346-.308.842.842,0,0,1-.154-.192,1.2,1.2,0,0,0-.346-.269l-.077-.077h-.077c-.038-.038-.077-.115-.115-.154a1.136,1.136,0,0,0-.115-.154c-.038-.038-.077-.077-.115-.077s0-.038-.038-.038a.527.527,0,0,1-.154-.116c-.077-.038-.077-.077-.115-.115-.077-.038-.116-.038-.154-.115v-.038h-.077c-.038,0-.038-.077-.077-.077a1.9,1.9,0,0,0-.269-.116,1.375,1.375,0,0,0-.346-.154c-.192-.038-.346-.154-.5-.192A3.879,3.879,0,0,0-25.937-17c-.192.077-.5.115-.576.154h-.115a.038.038,0,0,0-.038.038c-.116.038-.269,0-.385.038v.038c-.038.038-.115,0-.192.038,0,.038-.269.038-.269.038-.077,0-.116.038-.192.038-.115,0-.231.077-.308.077-.038-.038,0,0-.038,0-.077.038-.193.038-.269.077-.116.038-.346.116-.346.154h-.077v.038h-.077v.038H-28.9c-.038,0-.038.077-.077.077-.077.038-.115.077-.192.115a.136.136,0,0,0-.077.038c-.038,0-.077.077-.077.077l-.231.116c-.038,0-.038.077-.038.077-.038.038-.115,0-.115.038-.077.038-.115.115-.193.154a.134.134,0,0,0-.077.038c-.038,0-.077.077-.077.077-.154.077-.269.115-.308.192a.142.142,0,0,0-.038.115.8.8,0,0,1-.231.154,1.668,1.668,0,0,0-.269.308c-.077.077-.115.154-.192.192a1.2,1.2,0,0,1-.269.231v.077c-.038.038-.077.038-.077.077-.038.038-.077.077-.077.115a.53.53,0,0,1-.116.154l-.077.038c-.077.077-.077.115-.115.154l-.077.038a.142.142,0,0,0-.038.116c-.038.038-.115.038-.154.077a.141.141,0,0,0-.038.115l-.077.038v.077c0,.038-.077.038-.077.077l-.038.077c0,.038-.038,0-.038.038a.96.96,0,0,1-.154.269c0,.038-.077.038-.077.077v.077l-.077.038a.141.141,0,0,0-.038.115.136.136,0,0,1-.038.077c0,.077-.077.115-.116.154a1.314,1.314,0,0,0-.115.23.038.038,0,0,1-.038.038,3.231,3.231,0,0,0-.154.462,2.912,2.912,0,0,0-.192.615c-.038.116-.038.231-.077.346a4.041,4.041,0,0,0-.154.654c-.077.269-.115.577-.269.692v.077c-.077.154-.116.654-.231.731v.077a1.124,1.124,0,0,0-.077.346,3.594,3.594,0,0,0,.615.154c.038,0,.077-.038.115-.038.115,0,.154-.038.231-.038h.077a8.32,8.32,0,0,1,.961.115c.269,0,.654-.038.846-.038.154,0,.269.038.385.038a1.683,1.683,0,0,0,.192-.038,10.248,10.248,0,0,0,1.538,0c.192-.038.308,0,.385-.038h.115a.038.038,0,0,0,.038-.038h.731l.038-.038h.077c.461,0,.884.038,1.346.038s.923-.038,1.384-.038c.5,0,1,.038,1.538.038.231,0,.423-.038.654-.038.423-.038.884,0,1.269,0a1.663,1.663,0,0,0,.192-.038,3.912,3.912,0,0,1,1,.077c.269.038.384.038.615.077a.726.726,0,0,1,.308.077c.193,0,.423-.038.615-.038s.423.077.615-.038C-18.438-7.768-18.516-8.114-18.516-8.23Z" transform="translate(36.462 29.933)"/>
</svg>
