<svg xmlns="http://www.w3.org/2000/svg" width="42" height="26" viewBox="0 0 42 26">
  <path id="toggle-off" d="M17299.061,7801.013a13.158,13.158,0,0,1-1.82-2.231,7,7,0,0,1-.4-13.747,11.2,11.2,0,0,1,1.148-1.492,13.059,13.059,0,0,1,20.977,1.327h7.387a7,7,0,0,1,0,14h-7.316a12.889,12.889,0,0,1-10.912,6A12.6,12.6,0,0,1,17299.061,7801.013Zm.914-17.3c-4.182,4.433-4.785,12.167-.2,16.587,7.205,7.343,20.367,1.84,20.477-8.391a12.007,12.007,0,0,0-12.105-11.689A11.211,11.211,0,0,0,17299.975,7783.708Zm26.375,14.16a6,6,0,0,0,0-12h-6.82a14.534,14.534,0,0,1,.057,12Zm-34-6a6.015,6.015,0,0,0,4.205,5.726,12.886,12.886,0,0,1-.412-11.3A6.013,6.013,0,0,0,17292.348,7791.869Zm19.746,5.59a8.328,8.328,0,0,1-4.693-3.2,10.719,10.719,0,0,1-.658.936c-.883.961-4.123,2.136-4.045-.131a4.036,4.036,0,0,1,2.293-3.027,3.75,3.75,0,0,1-1.414-1.41c-.57-.787-1.3-2.71.387-2.688a4.934,4.934,0,0,1,3.328,2.014,6.944,6.944,0,0,1,1.482-1.436c5.443-3.262,4.947,1.41,1.371,3.824-.018.018-.039.031-.057.048a7.394,7.394,0,0,1,3.049,3.95.886.886,0,0,1-.84,1.144A.805.805,0,0,1,17312.094,7797.459Z" transform="translate(-17291.348 -7778.872)"/>
</svg>
