<svg xmlns="http://www.w3.org/2000/svg" width="13.835" height="17.252" viewBox="0 0 13.835 17.252">
  <path id="undo" d="M12.918,142.544a6.417,6.417,0,0,1-8.789-.782c-.148-.164-.3-.335-.432-.514l-.009-.014c-.158-.268-.33-.521-.5-.768a4.86,4.86,0,0,1-.942-1.948.723.723,0,0,1,.42-.8.933.933,0,0,1,1.114.092.69.69,0,0,1,.115.173,10.626,10.626,0,0,0,.649,1.17l.3.49.012.012a1.114,1.114,0,0,0,.176.241,6.653,6.653,0,0,0,.875.736l.015.005a6.388,6.388,0,0,0,1.8.768l0-.007a4.684,4.684,0,0,0,4.428-.813,6.327,6.327,0,0,0,1.7-2.523,3.924,3.924,0,0,0,.206-2.132l-.249-1.2a4.273,4.273,0,0,0-.963-1.7,2.749,2.749,0,0,0-.2-.207,2.089,2.089,0,0,0-1.222-.755,5.758,5.758,0,0,1-.6-.165,4.309,4.309,0,0,0-1.037-.1c-.228-.011-.418-.02-.6-.034a5.7,5.7,0,0,0-1.391.042.346.346,0,0,1-.051.006,1.067,1.067,0,0,1-1.035-.234.959.959,0,0,1-.2-.343l-.006-.022a.975.975,0,0,1,.643-1.144,7.143,7.143,0,0,1,1.879-.324l.154-.01a4.243,4.243,0,0,1,1.26.026c.056.009.114.018.174.023h.021l.79.246.027.009a7.506,7.506,0,0,1,2.133,1.236l.017.018.092.1a10.583,10.583,0,0,1,1.93,2.847l.01.025a11.159,11.159,0,0,1,.428,2.606l.014.182v.028a6.355,6.355,0,0,1-1,3.08,6.159,6.159,0,0,1-2.15,2.377m-7.9-8.05a4.152,4.152,0,0,1-2.11-1.242l-.039-.043a1.294,1.294,0,0,1-.3-.58,1.22,1.22,0,0,1,.1-.782c.489-.948.6-1.958,1.105-2.9a4.746,4.746,0,0,1,2.215-2.266.057.057,0,0,1,.024-.005l.006,0a.624.624,0,0,1,.66.588c.213,2.113-.5,2.367-1.516,4.049.067-.081-.053.121-.165.326-.1.185-.2.373-.164.368a12.21,12.21,0,0,1,3.518,1.753c.959,1.579-2.569.955-3.328.724" transform="translate(-2.232 -126.677)" fill="#060708"/>
</svg>
